<svg width="57" height="57" viewBox="0 0 57 57" fill="none" xmlns="http://www.w3.org/2000/svg">
<path fill-rule="evenodd" clip-rule="evenodd" d="M48.6907 8.2132C43.3311 2.91423 36.2022 4.61001e-10 28.6094 4.61001e-10C12.9682 -8.78676e-05 0.237708 12.5607 0.237708 28.0035C0.237708 32.9364 1.54737 37.7613 4.02883 42.0007L0 56.5147L15.0479 52.6186C19.1978 54.8489 23.8663 56.031 28.6052 56.031H28.6168C44.259 56.031 56.9999 43.4702 56.9999 28.0284C56.9999 20.5436 54.0461 13.5145 48.6865 8.21742L48.6907 8.21329L48.6907 8.2132ZM28.6177 51.3059C24.3785 51.3059 20.2264 50.1788 16.6037 48.0585L15.74 47.55L6.81016 49.8571L9.1949 41.2701L8.6363 40.3879C6.26207 36.689 5.02304 32.408 5.02304 28.0046C5.02304 15.1687 15.6065 4.72308 28.6305 4.72308C34.9284 4.72308 40.8613 7.15263 45.3121 11.5436C49.7648 15.9481 52.2138 21.7879 52.2138 28.0118C52.2033 40.857 41.6198 51.3026 28.6158 51.3026L28.6179 51.3058L28.6177 51.3059ZM41.5512 33.8671C40.8465 33.5132 37.355 31.8257 36.7071 31.5922C36.0591 31.3587 35.5867 31.2383 35.106 31.9461C34.6369 32.6415 33.2725 34.221 32.857 34.6933C32.4415 35.1572 32.0302 35.2236 31.3254 34.8697C30.6206 34.5158 28.3263 33.7779 25.6197 31.393C23.5148 29.5394 22.0873 27.2437 21.6718 26.5484C21.2563 25.8531 21.6254 25.467 21.9863 25.1256C22.3124 24.8142 22.6921 24.3098 23.0498 23.8998C23.4086 23.4899 23.5201 23.2035 23.7556 22.7303C23.9924 22.2664 23.8767 21.8564 23.6989 21.5046C23.5201 21.1518 22.0978 17.7072 21.5182 16.3041C20.9491 14.9331 20.3548 15.124 19.9182 15.1002C19.5027 15.0794 19.0325 15.0794 18.5645 15.0794C18.0963 15.0794 17.322 15.2548 16.6741 15.9522C16.0261 16.6476 14.1894 18.3475 14.1894 21.791C14.1894 25.2355 16.7288 28.5576 17.0854 29.0319C17.444 29.4947 22.0873 36.5696 29.2005 39.597C30.8909 40.3141 32.2111 40.7448 33.2399 41.0779C34.9408 41.6073 36.484 41.5305 37.7043 41.353C39.0687 41.1547 41.9004 39.6634 42.4948 38.0288C43.0881 36.3932 43.0881 34.9942 42.9103 34.7047C42.742 34.3933 42.2728 34.2211 41.5565 33.8629L41.5512 33.8671Z" fill="white" fill-opacity="0.5"/>
</svg>
