<svg width="48" height="48" viewBox="0 0 48 48" fill="none" xmlns="http://www.w3.org/2000/svg">
<g clip-path="url(#clip0_14_274)">
<path d="M36.6 14.2498C38.174 14.2498 39.45 12.9738 39.45 11.3998C39.45 9.82579 38.174 8.5498 36.6 8.5498C35.026 8.5498 33.75 9.82579 33.75 11.3998C33.75 12.9738 35.026 14.2498 36.6 14.2498Z" fill="white" fill-opacity="0.5"/>
<path d="M24 12.0752C17.4 12.0752 12.075 17.4002 12.075 24.0002C12.075 30.6002 17.4 35.9252 24 35.9252C30.6 35.9252 35.925 30.6002 35.925 24.0002C35.925 17.4002 30.6 12.0752 24 12.0752ZM24 32.1752C19.5 32.1752 15.825 28.5002 15.825 24.0002C15.825 19.5002 19.5 15.8252 24 15.8252C28.5 15.8252 32.175 19.5002 32.175 24.0002C32.175 28.5002 28.5 32.1752 24 32.1752Z" fill="white" fill-opacity="0.5"/>
<path d="M47.85 14.775C47.775 12.45 47.4 10.575 46.725 8.775C46.05 6.975 45.075 5.55 43.725 4.2C42.375 2.85 40.95 1.95 39.15 1.2C37.35 0.525 35.55 0.15 33.15 0.075C30.825 0 30 0 24 0C18 0 17.175 0 14.775 0.15C12.45 0.225 10.575 0.6 8.775 1.275C6.975 1.95 5.55 2.925 4.2 4.275C2.85 5.625 1.95 7.05 1.2 8.85C0.525 10.65 0.15 12.45 0.075 14.85C0 17.175 0 18 0 24C0 30 0 30.825 0.15 33.225C0.225 35.55 0.6 37.425 1.275 39.225C1.95 41.025 2.925 42.45 4.275 43.8C5.625 45.15 7.05 46.05 8.85 46.8C10.65 47.475 12.45 47.85 14.85 47.925C17.175 48 18 48 24 48C30 48 30.825 48 33.225 47.85C35.55 47.775 37.425 47.4 39.225 46.725C41.025 46.05 42.45 45.075 43.8 43.725C45.15 42.375 46.05 40.95 46.8 39.15C47.475 37.35 47.85 35.55 47.925 33.15C48 30.825 48 30 48 24C48 18 48 17.175 47.85 14.775ZM44.1 33C44.025 34.95 43.725 36.375 43.2 37.8C42.675 39.075 42.075 40.125 41.1 41.1C40.125 42.075 39.15 42.75 37.8 43.2C36.45 43.725 34.95 44.025 33 44.1C30.75 44.25 29.925 44.25 24 44.25C18.075 44.25 17.25 44.25 15 44.1C13.05 44.025 11.625 43.725 10.2 43.2C8.925 42.675 7.875 42.075 6.9 41.1C5.925 40.125 5.25 39.15 4.8 37.8C4.275 36.45 3.975 34.95 3.9 33C3.75 30.675 3.75 29.925 3.75 24C3.75 18.075 3.75 17.325 3.9 15C3.975 13.05 4.275 11.625 4.8 10.2C5.325 8.925 5.925 7.875 6.9 6.9C7.875 5.925 8.85 5.25 10.2 4.8C11.55 4.275 13.05 3.975 15 3.9C17.25 3.75 18.075 3.75 24 3.75C29.925 3.75 30.75 3.75 33 3.9C34.95 3.975 36.375 4.275 37.8 4.8C39.075 5.325 40.125 5.925 41.1 6.9C42.075 7.875 42.75 8.85 43.2 10.2C43.725 11.55 44.025 13.05 44.1 15C44.25 17.25 44.25 18.075 44.25 24C44.25 29.925 44.25 30.75 44.1 33Z" fill="white" fill-opacity="0.5"/>
</g>
<defs>
<clipPath id="clip0_14_274">
<rect width="48" height="48" fill="white"/>
</clipPath>
</defs>
</svg>
