<svg width="168" height="72" viewBox="0 0 168 72" fill="none" xmlns="http://www.w3.org/2000/svg">
<path d="M69.6744 56.3531H67.3241V51.1911H69.6744C71.7728 51.1911 72.7241 52.076 72.7241 53.7229C72.7241 55.247 71.8288 56.3531 69.6744 56.3531ZM69.6744 50.4783H65.6174C65.7852 50.7241 65.8692 50.9453 65.8692 51.5352V56.0581C65.8692 56.6481 65.7293 56.8939 65.6174 57.1151H69.7024C72.0526 57.1151 74.179 56.0336 74.179 53.7229C74.1511 50.9699 71.6609 50.4783 69.6744 50.4783ZM90.2112 51.5352C90.2112 50.9453 90.2951 50.6995 90.435 50.4783H89.12C89.2319 50.6995 89.3438 50.9453 89.3438 51.5352V55.5911L84.4474 50.4537H82.6568C82.7967 50.6995 82.9086 50.9207 82.9086 51.5106V56.009C82.9086 56.5989 82.8246 56.8447 82.6847 57.066H83.9718C83.8599 56.8201 83.72 56.5989 83.72 56.009V51.609L88.9241 57.0905H90.2112V51.5352ZM43.178 56.0581C42.6464 56.4023 41.1635 56.3777 39.8764 56.3531C39.4847 56.3531 38.5334 56.3285 38.5334 56.3285L38.5614 51.4861C38.5614 50.8961 38.6733 50.6503 38.8132 50.4291H36.9386C37.1065 50.6749 37.1624 50.8961 37.1624 51.4861V55.9844C37.1624 56.5743 37.0225 56.8201 36.9106 57.0414H42.9262L43.178 56.0581ZM159.404 56.0581C158.872 56.4023 157.389 56.3777 156.102 56.3531C155.711 56.3531 154.759 56.3285 154.759 56.3285L154.787 51.4861C154.787 50.8961 154.899 50.6503 155.039 50.4291H153.165C153.332 50.6749 153.416 50.8961 153.416 51.4861V55.9844C153.416 56.5743 153.277 56.8201 153.165 57.0414H159.18L159.404 56.0581ZM78.7956 51.5352C78.7956 50.9453 78.9075 50.6995 79.0474 50.4783H77.1728C77.3407 50.7241 77.4246 50.9453 77.4246 51.5352V56.0581C77.4246 56.6481 77.3127 56.8939 77.1728 57.1151H79.0474C78.8796 56.8693 78.7956 56.6481 78.7956 56.0581V51.5352ZM164.72 50.4045C162.929 50.3799 161.391 50.7978 161.251 52.076C161.223 52.3956 161.307 52.7643 161.586 53.0593C162.566 54.0917 165.14 54.1654 166.147 54.8537C166.427 55.0503 166.595 55.3453 166.567 55.6157C166.483 56.3777 165.392 56.5743 164.049 56.5252C162.23 56.5006 161.363 55.8861 161.083 55.6648C161.083 55.714 161.111 56.7464 161.111 56.7464C161.67 56.9431 162.734 57.2134 164.049 57.238C166.063 57.2872 167.854 56.8202 167.994 55.3945C168.022 55.0995 167.966 54.6079 167.658 54.3129C167.042 53.6738 165.839 53.428 164.72 53.1084C163.657 52.7889 162.678 52.6414 162.706 51.9777C162.734 51.3878 163.769 51.1665 164.72 51.1665C165.475 51.1665 166.315 51.2894 166.902 51.5106C167.182 51.609 167.434 51.6827 167.658 51.9039V50.8961C166.874 50.6012 165.643 50.4291 164.72 50.4045ZM122.863 53.7229C122.863 54.6079 123.171 55.3207 123.982 55.9107C124.374 56.2056 125.101 56.5006 126.137 56.5006C127.172 56.5006 127.787 56.304 128.319 55.9107C129.046 55.3453 129.41 54.5587 129.41 53.7229C129.41 52.8134 129.074 52.0514 128.263 51.5598C127.731 51.2403 127.088 51.0436 126.165 51.0436C125.129 51.0436 124.486 51.2648 124.038 51.5352C123.339 52.0023 122.863 52.7643 122.863 53.7229ZM126.109 50.3553C127.647 50.3553 129.074 50.7978 129.886 51.5598C130.473 52.1006 130.809 52.8626 130.809 53.7475C130.809 54.3866 130.445 55.2715 129.886 55.8369C128.879 56.8201 127.647 57.238 126.109 57.238C124.542 57.238 123.143 56.7464 122.275 55.8615C121.716 55.2715 121.38 54.485 121.38 53.7229C121.408 52.8626 121.772 52.1498 122.443 51.5598C123.395 50.7486 124.654 50.3553 126.109 50.3553ZM118.079 51.5352C118.079 50.9207 118.19 50.6995 118.33 50.4783H116.456C116.624 50.6995 116.68 50.9453 116.68 51.5352V53.1822H111.923V51.5352C111.923 50.9207 112.035 50.6995 112.175 50.4783H110.3C110.468 50.6995 110.524 50.9453 110.524 51.5352V56.0336C110.524 56.6235 110.384 56.8693 110.272 57.0905H112.119C111.979 56.8447 111.867 56.6235 111.867 56.0336V53.9196H116.624V56.0336C116.624 56.6235 116.512 56.8693 116.372 57.0905H118.218C118.051 56.8447 117.967 56.6235 117.967 56.0336L118.079 51.5352ZM17.7728 51.5352C17.7728 50.9207 17.8847 50.6995 18.0246 50.4783H16.15C16.3178 50.6995 16.4018 50.9453 16.4018 51.5352V53.1822H11.6453V51.5352C11.6453 50.9207 11.7572 50.6995 11.8971 50.4783H10.0225C10.1904 50.6995 10.2463 50.9453 10.2463 51.5352V56.0336C10.2463 56.6235 10.1064 56.8693 9.99452 57.0905H11.8691C11.7013 56.8447 11.6453 56.6235 11.6453 56.0336V53.9196H16.4018V56.0336C16.4018 56.6235 16.2619 56.8693 16.15 57.0905H17.9966C17.8567 56.8447 17.7728 56.6235 17.7728 56.0336V51.5352ZM146.534 56.3531C146.114 56.3531 144.351 56.3285 144.295 56.3285V53.895C145.135 53.895 148.016 53.8704 148.464 54.1162V52.9855C148.128 53.2313 145.358 53.2067 144.295 53.2067V51.2403C144.295 51.2403 148.184 51.1665 149.052 51.3386C149.303 51.3877 149.471 51.4861 149.471 51.4861C149.471 51.4615 149.471 50.5028 149.471 50.5028H142.7C142.868 50.7241 142.952 50.9699 142.952 51.5598V56.0581C142.952 56.6481 142.84 56.8693 142.7 57.1151H149.611L149.863 56.0581C149.303 56.4023 147.821 56.3531 146.534 56.3531ZM49.0816 56.3531C48.6619 56.3531 46.8992 56.3285 46.8433 56.3285V53.895C47.6826 53.895 50.5645 53.8704 51.0122 54.1162V52.9855C50.6764 53.2313 47.9065 53.2067 46.8433 53.2067V51.2403C46.8433 51.2403 50.7324 51.1665 51.5997 51.3386C51.8516 51.3877 52.0194 51.4861 52.0194 51.4861C52.0194 51.4615 52.0194 50.5028 52.0194 50.5028H45.2484C45.4163 50.7241 45.5003 50.9699 45.5003 51.5598V56.0581C45.5003 56.6481 45.3883 56.8693 45.2484 57.1151H52.1593L52.4111 56.0581C51.8516 56.4023 50.3687 56.3531 49.0816 56.3531ZM25.551 56.3531C25.1313 56.3531 23.3686 56.3285 23.3127 56.3285V53.895C24.152 53.895 27.0339 53.8704 27.4816 54.1162V52.9855C27.1458 53.2313 24.3759 53.2067 23.3127 53.2067V51.2403C23.3127 51.2403 27.2018 51.1665 28.0691 51.3386C28.321 51.3877 28.4888 51.4861 28.4888 51.4861C28.4888 51.4615 28.4888 50.5028 28.4888 50.5028H21.7178C21.8857 50.7241 21.9697 50.9699 21.9697 51.5598V56.0581C21.9697 56.6481 21.8577 56.8693 21.7178 57.1151H28.6287L28.8805 56.0581C28.293 56.4023 26.8381 56.3531 25.551 56.3531ZM136.993 51.1911H138.615C139.259 51.1911 139.735 51.2403 139.958 51.4615V50.4783H132.656V51.4615C132.852 51.2403 133.411 51.1911 133.999 51.1911H135.622V56.0581C135.622 56.6481 135.482 56.8939 135.37 57.1151C135.398 57.1151 137.244 57.1151 137.244 57.1151C137.077 56.8693 136.993 56.6481 136.993 56.0581V51.1911ZM4.42664 51.1911H6.07741C6.72094 51.1911 7.19659 51.2403 7.42042 51.4615V50.4783H0.0898438V51.4615C0.313678 51.2403 0.845285 51.1911 1.43285 51.1911H3.05565V56.0581C3.05565 56.6481 2.91575 56.8939 2.80384 57.1151C2.83182 57.1151 4.67845 57.1151 4.67845 57.1151C4.51057 56.8693 4.42664 56.6481 4.42664 56.0581V51.1911ZM101.879 50.9945C101.067 50.6012 99.7241 50.3799 98.549 50.3799C96.7024 50.3799 95.4993 50.847 94.7158 51.3632C93.8205 51.9531 93.3169 52.7889 93.3169 53.7229C93.3449 54.6324 93.8485 55.5174 94.6599 56.0827C95.6671 56.771 96.9262 57.1889 98.549 57.1889C99.864 57.1889 100.871 56.9431 101.879 56.4023V53.6984H100.228C100.34 53.8213 100.508 54.0425 100.508 54.6079L100.48 56.1073C99.92 56.3777 99.3324 56.4514 98.549 56.4514C97.234 56.4514 96.2267 56.1073 95.5832 55.5174C94.9956 54.952 94.7158 54.4112 94.7158 53.7229C94.7158 53.0347 95.0796 52.4447 95.6392 51.9777C96.4226 51.3386 97.3739 51.1174 98.549 51.1174C99.6122 51.1174 100.675 51.3386 101.403 51.7565C101.599 51.8548 101.767 51.9531 101.851 52.0514V50.9945H101.879ZM56.5801 54.5587H59.8536L58.2308 51.7565L56.5801 54.5587ZM58.9863 50.4783L62.6795 56.4269C62.9034 56.7464 63.1272 56.9676 63.351 57.1151C63.2671 57.1151 61.0288 57.1151 61.0288 57.1151C61.1407 56.9431 61.1687 56.6972 60.9728 56.3531L60.2733 55.2224H56.1883L55.4609 56.476C55.293 56.7464 55.349 56.9431 55.4609 57.0905H53.8661C54.0899 56.9431 54.2858 56.6972 54.3977 56.5006L58.0909 50.4537L58.9863 50.4783Z" fill="white"/>
<path d="M84.2516 25.9218C84.2516 25.9218 80.3625 36.6392 80.2505 36.9095C79.9148 35.9017 77.8443 29.2403 77.5086 28.257C77.3407 27.7408 77.2288 27.0034 77.2008 26.7084C77.1728 26.2905 77.2847 26.0202 77.3407 25.8973L77.3967 25.7744C77.3967 25.7744 76.4454 25.8727 75.7739 25.971C75.2422 26.0447 74.207 26.2168 74.207 26.2168L74.3189 26.3151C74.6827 26.6838 74.7946 27.0034 75.2422 28.3308L79.5511 41.0637H79.8308C79.8308 41.0637 83.7759 30.4447 83.8599 30.1989C83.9438 30.4447 88.0288 41.0637 88.0288 41.0637H88.2806L92.6454 28.3554C93.121 27.028 93.4008 26.5855 93.6806 26.2906L93.7645 26.2168C93.6247 26.1676 93.177 26.0939 92.6454 25.971C92.0578 25.8481 91.5542 25.7744 91.5542 25.7744L91.6101 25.9218C91.6101 25.9218 91.75 26.1185 91.75 26.5118C91.75 26.8313 91.6101 27.6179 91.3863 28.3308C91.3863 28.3308 88.6723 36.6883 88.5884 36.9341C88.5044 36.6883 84.3915 25.9218 84.3915 25.9218H84.2516ZM94.0443 8.59223L94.0723 8.66597C94.6039 9.67379 94.9117 10.7308 94.9117 13.3118C94.9117 13.3118 94.7438 21.104 94.7438 21.2023C94.1563 21.104 88.8961 20.2436 83.9438 20.2436C78.8236 20.2436 73.7314 21.104 73.1718 21.2023V13.3118C73.1718 10.7799 73.5635 9.74753 74.0951 8.66597L74.1511 8.59223H69.2267L69.2547 8.66597C69.7863 9.67379 70.0661 10.7308 70.0661 13.3118V33.0503C70.0661 35.6559 69.6464 36.6392 69.1707 37.6961L69.1428 37.7699H73.9832L73.9552 37.7207C73.4236 36.7129 73.1158 35.6559 73.1158 33.0749C73.1158 33.0749 73.1158 23.3162 73.1158 23.2425C73.4795 23.1442 77.8163 22.2593 83.9158 22.2593C89.8754 22.2593 94.3241 23.1688 94.7158 23.2425C94.7158 23.3162 94.8837 33.0749 94.8837 33.0749C94.8837 35.6805 94.5759 36.6637 94.1003 37.7207L94.0723 37.7945H98.8008L98.7728 37.7453C98.2412 36.7375 97.9614 35.6805 97.9614 33.0995V13.3609C97.9614 10.8291 98.3531 9.7967 98.8848 8.71513L98.9127 8.64139H94.0443V8.59223ZM82.7967 0.800049L82.7687 0.873793C82.4889 1.43916 82.2651 2.00452 82.2651 3.38105C82.2651 3.38105 82.2371 15.3028 82.2371 15.4012C82.9366 15.3766 84.1676 15.3766 84.5594 15.3766C86.8257 15.3766 89.2039 15.6716 90.2112 14.7866H90.2951L89.4557 16.7531C88.1687 16.6302 86.406 16.5073 84.5594 16.5073C82.9366 16.5073 81.6775 16.5319 79.4391 16.6794H79.3272L79.3552 16.6056C79.607 16.0403 79.8308 15.4995 79.8308 14.0984V3.38105C79.8308 1.97994 79.663 1.41457 79.3832 0.873793L79.3552 0.800049H82.7967Z" fill="white"/>
<path d="M30.3914 64.2928C31.9303 64.2928 33.3572 64.7352 34.1966 65.4973C34.7842 66.0135 35.1479 66.8001 35.1479 67.685C35.1479 68.3241 34.7842 69.209 34.2246 69.7744C33.2173 70.7576 31.9862 71.1755 30.4474 71.1755C28.8805 71.1755 27.4536 70.6839 26.6142 69.7989C26.0546 69.209 25.7189 68.4224 25.7189 67.685C25.7468 66.8246 26.1106 66.1118 26.7821 65.5218C27.6774 64.6615 28.9365 64.2928 30.3914 64.2928ZM27.1458 67.6604C27.1458 68.5453 27.4536 69.2336 28.237 69.8481C28.6287 70.1431 29.3562 70.438 30.3914 70.438C31.4266 70.438 32.0422 70.2414 32.5738 69.8481C33.3292 69.2827 33.665 68.4961 33.665 67.6604C33.665 66.7509 33.3292 65.9889 32.5178 65.4973C31.9862 65.1777 31.3427 64.9811 30.3914 64.9811C29.3562 64.9811 28.7127 65.2023 28.265 65.4727C27.5935 65.9397 27.1458 66.7017 27.1458 67.6604Z" fill="white"/>
<path d="M39.7365 70.0201V67.8816C40.5759 67.8816 43.5137 67.857 43.9894 68.0782V66.9229C43.6536 67.1687 40.7997 67.1442 39.7365 67.1196V65.2023C39.7365 65.2023 43.5137 65.1285 44.3531 65.3006C44.6049 65.3497 44.7728 65.4481 44.7728 65.4481C44.7728 65.4235 44.7728 64.4402 44.7728 64.4402H38.1417C38.3096 64.6615 38.3935 64.9073 38.3935 65.4972V69.971C38.3935 70.5609 38.2816 70.7822 38.1417 71.028H39.9883C39.7925 70.7822 39.7365 70.5855 39.7365 70.0201Z" fill="white"/>
<path d="M138.615 64.4402C140.546 64.4402 142.98 64.9073 142.98 67.5866C142.98 69.8481 140.91 70.9051 138.615 70.9051H134.642C134.754 70.6838 134.894 70.438 134.894 69.8726V65.4727C134.894 64.8827 134.81 64.6615 134.67 64.4402H138.615ZM138.615 70.1922C140.714 70.1922 141.581 69.1106 141.581 67.6358C141.581 66.038 140.658 65.1531 138.615 65.1531H136.321V70.1922H138.615Z" fill="white"/>
<path d="M106.355 64.2928C107.894 64.2928 109.265 64.7107 110.104 65.4727C110.692 65.9889 111.028 66.7509 111.028 67.6358C111.028 68.2749 110.692 69.1352 110.104 69.7006C109.125 70.6838 107.894 71.0771 106.383 71.0771C104.844 71.0771 103.445 70.6101 102.606 69.7006C102.046 69.1352 101.711 68.3487 101.739 67.6112C101.767 66.7509 102.13 66.0626 102.774 65.4973C103.697 64.6615 104.928 64.2928 106.355 64.2928ZM103.166 67.6112C103.166 68.4961 103.473 69.1844 104.257 69.7744C104.648 70.0693 105.348 70.3643 106.383 70.3643C107.39 70.3643 108.034 70.1676 108.538 69.7744C109.265 69.209 109.629 68.4224 109.629 67.6358C109.629 66.7509 109.293 66.0135 108.482 65.5218C107.95 65.2023 107.307 65.0056 106.411 65.0056C105.376 65.0056 104.76 65.2269 104.313 65.4973C103.613 65.9151 103.166 66.6526 103.166 67.6112Z" fill="white"/>
<path d="M131.509 69.8972C130.977 70.2414 129.55 70.1922 128.291 70.1922C127.899 70.1922 126.976 70.1676 126.976 70.1676L127.004 65.4727C127.004 64.8827 127.116 64.6615 127.256 64.4402H125.437C125.605 64.6615 125.661 64.9073 125.661 65.4727V69.8726C125.661 70.4626 125.549 70.6838 125.409 70.9051H131.285L131.509 69.8972Z" fill="white"/>
<path d="M121.576 70.2659C121.912 70.6592 122.303 70.9051 122.303 70.9051C122.303 70.9051 120.653 70.9296 120.345 70.9051C120.345 70.9051 119.785 70.2659 119.17 69.4056C118.498 68.447 118.107 68.0537 117.519 67.9062C117.183 67.8324 116.288 67.8324 115.868 67.8324V69.8727C115.868 70.4626 115.98 70.6838 116.148 70.9051H114.105C114.273 70.6838 114.441 70.4626 114.441 69.8727V65.4727C114.441 64.9073 114.329 64.6615 114.161 64.4402H116.652C119.114 64.4402 121.24 64.4402 121.24 66.038C121.24 67.4391 119.645 67.6604 119.198 67.6604C119.394 67.6604 119.589 67.8816 119.785 68.1028C120.233 68.5207 120.821 69.381 121.576 70.2659ZM118.666 67.095C119.506 66.9229 119.813 66.628 119.813 66.0626C119.813 65.5218 119.198 65.276 118.666 65.1777C118.19 65.1039 117.407 65.1039 116.903 65.1039C116.596 65.1039 115.896 65.1039 115.868 65.1039V67.1442C115.896 67.1442 116.875 67.1442 116.875 67.1442C117.659 67.1687 118.246 67.1687 118.666 67.095Z" fill="white"/>
<path d="M100.004 64.4649H98.605C98.605 64.4649 98.8568 64.6369 98.493 65.3744L96.7863 69.0861L94.3241 64.4157H94.0723L91.6661 69.209C91.6661 69.209 90.1552 65.8168 89.9314 65.3498C89.6236 64.7107 89.9034 64.4649 89.9034 64.4649H87.9448C88.1687 64.6615 88.2526 64.7844 88.5324 65.3744L91.2184 71.0034H91.5822L93.9044 66.4805L96.3946 71.0034H96.6464L99.3604 65.399C99.6682 64.8336 99.7801 64.6369 100.004 64.4649Z" fill="white"/>
<path d="M55.7686 65.0548H57.4754C58.1469 65.0548 58.6505 65.0794 58.8744 65.3252V64.3174H51.292V65.3252C51.5158 65.104 52.0754 65.0548 52.6909 65.0548H54.3697V70.0939C54.3697 70.7084 54.2298 70.9543 54.0899 71.2001C54.1179 71.2001 56.0205 71.2001 56.0205 71.2001C55.8526 70.9543 55.7686 70.7084 55.7686 70.0939V65.0548Z" fill="white"/>
<path d="M78.4039 70.3889C77.9562 70.3889 76.1376 70.3643 76.0816 70.3643V67.8325C76.977 67.8079 79.9428 67.8079 80.4184 68.0537V66.8738C80.0547 67.1442 77.2008 67.095 76.0816 67.095V65.0548C76.0816 65.0548 80.1386 64.9811 81.006 65.1531C81.2578 65.2023 81.4537 65.3252 81.4537 65.3252C81.4537 65.3006 81.4537 64.2928 81.4537 64.2928H74.4029C74.5707 64.5386 74.6547 64.7844 74.6547 65.3989V70.0693C74.6547 70.6838 74.5428 70.9051 74.4029 71.1755H81.5656L81.8174 70.0939C81.2578 70.438 79.7469 70.4135 78.4039 70.3889Z" fill="white"/>
<path d="M69.8702 65.3989C69.8702 64.7844 69.9821 64.5386 70.15 64.2928H68.2194C68.3873 64.5386 68.4712 64.7844 68.4712 65.3989V67.095H63.5189V65.3989C63.5189 64.7844 63.6308 64.5386 63.7987 64.2928H61.8681C62.036 64.5386 62.12 64.7844 62.12 65.3989V70.0693C62.12 70.6838 61.9801 70.9297 61.8402 71.1755H63.7707C63.6029 70.9297 63.5189 70.6838 63.5189 70.0693V67.8816H68.4712V70.0693C68.4712 70.6838 68.3314 70.9297 68.1915 71.1755H70.122C69.9542 70.9297 69.8702 70.6838 69.8702 70.0693V65.3989Z" fill="white"/>
<path d="M145.386 65.2514H145.666C145.778 65.2514 145.862 65.2514 145.918 65.276C145.974 65.3006 146.002 65.3006 146.03 65.3497C146.058 65.3743 146.058 65.4235 146.058 65.4481C146.058 65.5218 146.03 65.571 145.974 65.5956C145.918 65.6201 145.834 65.6447 145.694 65.6447H145.386V65.2514ZM145.386 66.4067V65.8414H145.526C145.61 65.8414 145.666 65.8659 145.722 65.8905C145.778 65.9397 145.862 66.038 145.974 66.2101L146.114 66.4313H146.422L146.226 66.1609C146.142 66.038 146.058 65.9397 146.002 65.8905C145.974 65.8659 145.918 65.8414 145.862 65.8168C146.002 65.8168 146.114 65.7676 146.17 65.6939C146.254 65.6201 146.282 65.5218 146.282 65.4235C146.282 65.3497 146.254 65.276 146.198 65.2268C146.142 65.1531 146.086 65.1285 146.002 65.1039C145.918 65.0794 145.778 65.0794 145.61 65.0794H145.079V66.4313H145.386V66.4067ZM146.338 64.809C146.534 64.9073 146.673 65.0302 146.785 65.2023C146.897 65.3743 146.953 65.5464 146.953 65.7185C146.953 65.8905 146.897 66.0626 146.785 66.2347C146.673 66.4067 146.534 66.5296 146.338 66.628C146.142 66.7263 145.946 66.7754 145.75 66.7754C145.554 66.7754 145.358 66.7263 145.163 66.628C144.967 66.5296 144.827 66.4067 144.715 66.2347C144.603 66.0626 144.547 65.8905 144.547 65.7185C144.547 65.5464 144.603 65.3497 144.715 65.2023C144.827 65.0302 144.967 64.9073 145.163 64.809C145.358 64.7106 145.554 64.6615 145.75 64.6615C145.974 64.6615 146.17 64.7106 146.338 64.809ZM145.051 64.6123C144.827 64.7106 144.631 64.8827 144.519 65.0794C144.379 65.276 144.323 65.4972 144.323 65.7185C144.323 65.9397 144.379 66.1363 144.519 66.333C144.631 66.5296 144.827 66.6771 145.051 66.8C145.274 66.8983 145.526 66.9721 145.778 66.9721C146.03 66.9721 146.254 66.9229 146.478 66.8C146.701 66.7017 146.869 66.5296 147.009 66.333C147.121 66.1363 147.205 65.9151 147.205 65.7185C147.205 65.4972 147.149 65.276 147.009 65.0794C146.869 64.8827 146.701 64.7106 146.478 64.6123C146.254 64.514 146.03 64.4402 145.778 64.4402C145.526 64.4648 145.302 64.514 145.051 64.6123Z" fill="white"/>
</svg>
