<svg width="75" height="82" viewBox="0 0 75 82" fill="none" xmlns="http://www.w3.org/2000/svg">
<path fill-rule="evenodd" clip-rule="evenodd" d="M63.4901 35.405L63.5698 35.3366L63.9456 34.9947L64.3087 34.6528L64.6617 34.2768L65.0025 33.9121L65.3442 33.5019L65.6623 33.103L65.9812 32.7156L66.3111 32.3053L66.6186 31.8947L66.8912 31.4388L67.1646 30.983L67.4481 30.5162L67.6984 30.0604L67.9258 29.5476L68.1197 29.0006L68.3126 28.4427L68.5287 27.9298L68.733 27.4057L68.915 26.8473L69.0861 26.2775L69.2226 25.6735L69.3249 25.0586L69.3923 24.4546L69.4041 23.8393L69.37 23.1897L69.3018 22.5743L69.2221 21.959L69.1198 21.355L68.9719 20.808L68.8131 20.261L68.6311 19.7368L68.46 19.2126L68.3003 18.6656L68.1074 18.1528L67.8572 17.6742L67.5955 17.2526L67.2657 16.8309L66.9476 16.4435L66.6287 16.0446L66.3098 15.6572L65.9567 15.2925L65.6045 14.9165L65.2064 14.586L64.8083 14.2555L64.3537 13.982L63.8874 13.7313L63.4893 13.5148V35.405H63.4901ZM63.4901 80.7232V79.322L63.6266 79.1165L64.968 77.1682L63.6266 74.9689L63.4901 74.741V72.6214L63.6953 73.0316L63.9788 73.487L64.2977 74.0796L65.6172 76.1882L65.6282 76.1992L65.6513 76.211L65.6745 76.1992L65.6855 76.1882L66.4699 75.0833L67.05 74.1607L67.4822 73.4423L67.7215 72.9637L67.9035 72.5534L67.9145 72.5302L68.4031 72.5534L68.915 72.5302H68.9491L68.9723 72.5534L68.9491 72.5758L68.9382 72.61L68.2553 73.5216L67.6984 74.2619L66.9822 75.2884L66.004 76.8036L65.9808 76.8145L66.004 76.8378L68.1538 80.3928L68.6083 81.0989L69.0296 81.7142L69.0406 81.7261V81.7484H69.0178L68.6083 81.7261H68.1306L67.7093 81.7484L67.6984 81.7261L67.6642 81.7142L67.0618 80.6886L65.3442 77.7941L65.321 77.7832H65.276L65.265 77.7941L64.1267 79.6174L63.7859 80.1868L63.4901 80.7232ZM63.4901 55.4946V54.3432H74.5V55.4946H63.4901ZM57.3824 39.3365L57.5184 39.2795L57.9848 39.0516L58.4625 38.8009L58.8948 38.5388L59.3502 38.2881L59.7938 38.0255L60.2483 37.7406L60.6806 37.4785L61.1242 37.1936L61.5678 36.9201L62.0001 36.658L62.3982 36.339L62.7963 35.9971L63.1712 35.6894L63.4901 35.405V13.5148L63.4105 13.4692L62.921 13.2189L62.4091 13.0024L61.8972 12.7973L61.3403 12.6036L60.7834 12.444L60.2142 12.3301L59.6 12.2503L58.9525 12.1933L58.2928 12.1592L57.6212 12.1819L57.3828 12.1933V20.0445L57.6781 20.1466L58.19 20.3631L58.6677 20.6252L59.0999 20.9215L59.5094 21.2292L59.8957 21.5597L60.2488 21.9471L60.5563 22.3455L60.8398 22.7672L61.0791 23.2458L61.2721 23.7696L61.4318 24.2938L61.5906 24.8294L61.6929 25.4333L61.7384 26.0487L61.7494 26.6636L61.7384 27.3022L61.682 27.929L61.6015 28.5439L61.4768 29.1593L61.3171 29.729L61.1242 30.276L60.8858 30.7888L60.6578 31.2789L60.4085 31.7689L60.146 32.2247L59.8502 32.6691L59.5313 33.0794L59.2356 33.501L58.8948 33.8999L58.5417 34.2759L58.1895 34.6292L57.8255 34.9824L57.4506 35.3243L57.3824 35.3699V39.3365ZM57.3824 31.747V26.2319L57.4961 26.437L57.6781 26.9384L57.826 27.4854L57.9507 28.0784L58.0189 28.6482L58.0298 29.2522L57.9734 29.8334L57.8597 30.4145L57.7 30.9839L57.507 31.4967L57.3824 31.747ZM63.4901 54.3432V55.4946H57.5644V54.3432H63.4901ZM63.4901 72.6214V74.741L62.921 73.8061L62.4664 73.1219L62.1475 72.5982L62.1365 72.564V72.553L62.1475 72.5298H62.1816L62.7731 72.553L63.4328 72.5298H63.456V72.553L63.4901 72.6214ZM63.4901 79.3216V80.7232L63.467 80.757L63.0006 81.7142L62.9673 81.7484H62.9555L62.9214 81.7594L62.3531 81.7484L61.8294 81.7594H61.7962L61.7844 81.7484V81.7033L62.2621 81.0423L62.7972 80.324L63.4901 79.3216ZM57.3824 81.8058V81.1905L57.7687 81.1786L58.19 81.1111L58.5421 80.9963L58.8497 80.8372L59.1222 80.6781L59.3502 80.4725L59.5431 80.2337L59.7019 79.983L59.8384 79.7323L59.9408 79.425L60.0432 79.0485L60.0996 78.5813L60.1451 78.0234L60.1569 77.3738L60.0545 73.899L60.009 73.192L59.9631 72.5653V72.5311H59.9972L60.4295 72.5543L60.9072 72.5201H60.919L60.93 72.5311V72.5543L60.8845 73.1811L60.8613 73.853L60.8158 77.3861V78.0238L60.7703 78.5256L60.6788 79.0152L60.5765 79.4938L60.4627 79.802L60.349 80.0868L60.156 80.3941L59.9622 80.6448L59.792 80.8271L59.5418 81.0436L59.3025 81.2369L59.0409 81.4083L58.6428 81.5906L58.2565 81.6932L57.8128 81.7607L57.3824 81.8058ZM57.3824 70.1937V69.5901L57.507 69.5669L57.871 69.442L58.235 69.2487L58.4734 69.0997L58.6786 68.9292L58.8724 68.7692L58.8834 68.7236L58.8943 68.678L58.872 68.6439L58.473 68.1652L57.6435 67.151L57.3819 66.8206V64.3937L57.4042 64.3828L57.6203 64.1996L57.8478 64.0181L58.053 63.7898L58.2127 63.5732L58.3715 63.277L58.4621 63.0262L58.508 62.7641L58.519 62.5362L58.4848 62.3316L58.4166 62.1032L58.3142 61.9209L58.2127 61.7846L58.0762 61.682L57.871 61.5794L57.6667 61.5111L57.4615 61.4769H57.3819V61.0324H57.598L57.9047 61.089L58.2236 61.2148L58.4853 61.3397L58.7237 61.4887L58.9175 61.682L59.0313 61.8525L59.1336 62.0581L59.2019 62.2636L59.2474 62.4915V62.708L59.2242 62.9469L59.1446 63.1753L59.054 63.38L58.9394 63.6079L58.7915 63.7902L58.6095 64.0299L58.4166 64.2232L58.1782 64.4056L57.8815 64.6335L57.6199 64.8048L57.4497 64.9416H57.4379V64.9526H57.4497L57.7223 65.3514L58.6323 66.5019L59.3029 67.3119L59.6901 67.7563L59.7133 67.7787L59.7465 67.7677L59.9968 67.4714L60.2129 67.1633L60.5205 66.6847L60.9186 65.9904L61.2935 65.2037L61.3158 65.1927H61.3499L61.8959 65.8305L61.9077 65.8537V65.876L61.8959 65.8879L61.5438 66.3888L61.066 67.0498L60.5651 67.6651L60.3258 67.95L60.1097 68.2121L60.0987 68.2231L60.1097 68.2573L60.9632 69.2264L61.4751 69.7501L61.9073 70.1722V70.2173L61.8841 70.2283L60.94 70.2059L60.0983 70.2283L60.0528 70.2173H60.0419L60.0187 70.1832L59.8025 69.7953L59.4836 69.3289L59.2793 69.055L59.2452 69.044H59.222L59.1997 69.055L59.0741 69.2264L58.8812 69.3977L58.5736 69.6366L58.2901 69.808L57.9826 69.9785L57.6527 70.1152L57.3824 70.1937ZM48.3167 46.8795L48.5446 47.1876L48.829 47.632L49.0784 48.0874L49.2836 48.6002L49.4424 49.1249L49.602 49.66L49.7035 50.2303L49.7495 50.8114L49.7035 51.3808L49.602 51.9396L49.4201 52.4524L49.2039 52.9534L48.9423 53.4206L48.6466 53.865L48.339 54.2753L48.3158 54.2985V60.361L48.8509 60.3377L49.4424 60.2922L50.0115 60.2006L50.5685 60.0524L51.0921 59.8811L51.5922 59.6531L52.0585 59.4366L52.514 59.1745L52.9685 58.9124L53.4121 58.6503L53.8326 58.354L54.2307 58.0236L54.6065 57.6813L54.9473 57.2942L55.2772 56.9186L55.607 56.5198L55.8686 56.0526L56.0848 55.5397L56.2668 54.9818L56.3923 54.3664L56.4938 53.7511L56.5397 53.0901L56.5279 52.4292L56.4483 51.8138L56.3346 51.2212L56.1867 50.6633L55.9938 50.1386L55.8118 49.6258L55.6066 49.1249L55.3563 48.6577L55.0606 48.2474L54.7539 47.8363L54.435 47.4374L54.0942 47.0395L53.7411 46.6972L53.3662 46.3443L52.979 46.002L52.5927 45.6834L52.1605 45.3753L51.7392 45.068L51.2956 44.7717L50.8861 44.4636L50.4315 44.1673L49.9761 43.9166L49.4874 43.6659L48.9865 43.438L48.4978 43.1873L48.315 43.0966V46.8795H48.3167ZM48.3167 41.7063L48.6816 41.6721L49.2949 41.5696L49.875 41.467L50.4665 41.3653L51.0698 41.2628L51.6499 41.1488L52.2182 41.0344L52.8215 40.9204L53.3785 40.7951L53.9476 40.6469L54.4818 40.4874L54.9937 40.3051L55.5055 40.0886L55.9951 39.8948L56.5069 39.6897L57.0297 39.4846L57.3824 39.3365L57.3828 35.3708L57.0529 35.6443L56.6548 35.9519L56.2335 36.2596L55.7899 36.5559L55.3577 36.8066L54.8922 37.0573L54.4026 37.2852L53.9363 37.5136L53.4362 37.7187L52.9585 37.9466L52.4689 38.1631L51.968 38.3911L51.4793 38.5962L50.9674 38.7899L50.4333 38.9722L49.9096 39.1546L49.3868 39.3141L48.8067 39.4395L48.3171 39.5648L48.3167 41.7063ZM57.3824 12.1929L56.961 12.2271L56.3468 12.2955L55.7553 12.3866L55.1638 12.512L54.641 12.6715L54.106 12.8648L53.6173 13.0699L53.1278 13.3092L52.6732 13.5599L52.2178 13.8225L51.7974 14.096L51.3419 14.3809L50.9215 14.6544L50.4893 14.9506L50.1253 15.2925L49.7504 15.623L49.3632 15.9763L48.9882 16.3295L48.6352 16.6828L48.3163 17.0816V21.6622L48.5897 21.4799L49.0451 21.1955L49.4887 20.9671L49.9774 20.7278L50.4783 20.5341L51.0243 20.3517L51.5362 20.1694L52.0704 20.0099L52.6505 19.8731L53.2306 19.7706L53.833 19.668L54.4936 19.6452L55.1643 19.668L55.8581 19.7364L56.5288 19.8162L57.1321 19.9529L57.3824 20.0441V12.1929ZM48.3167 30.7213V24.306L48.4313 24.2377L48.9091 23.9984L49.3977 23.7932L49.9096 23.5881L50.4333 23.4172L50.9902 23.269L51.5817 23.1437L52.2073 23.1095L52.867 23.1209L53.4703 23.2234L54.0386 23.3716L54.5955 23.5539L55.0733 23.8046L55.5178 24.0895L55.9159 24.4086L56.3022 24.7619L56.6552 25.1151L56.9619 25.5363L57.2463 25.9694L57.3828 26.2315V31.7465L57.2572 31.9972L56.9956 32.4644L56.6999 32.8861L56.37 33.2849L56.017 33.6496L55.653 33.9915L55.2548 34.3219L54.8454 34.6296L54.414 34.9141L53.9817 35.199L53.5373 35.4725L53.0718 35.7118L52.7078 35.8599L52.4462 35.9625L52.1618 36.0422H51.9002L51.6044 35.9625L51.4447 35.8029L51.3883 35.5522L51.3993 35.2901L51.5016 35.028L51.6263 34.7773L51.8083 34.4127L51.9903 33.8543L52.0585 33.2389L52.013 32.6463L51.8652 32.1107L51.66 31.6207L51.4216 31.3358L51.2396 31.1535L51.0799 30.9598L50.8638 30.823L50.5912 30.6977L50.3068 30.6293L49.8405 30.5837H49.2149L48.6348 30.6521L48.3167 30.7213ZM57.3824 61.0324V61.4769H57.2345L57.007 61.4887L56.8018 61.5685L56.6421 61.6483L56.5061 61.7732L56.4037 61.899L56.3241 62.0813L56.2668 62.286L56.2444 62.5025V62.7422L56.2899 62.9701L56.3805 63.2664L56.5061 63.5737L56.6881 63.8818L56.8582 64.1781L56.9497 64.2806L57.1317 64.5313L57.1426 64.5423H57.1658L57.1999 64.5313L57.3819 64.3946V66.8214L56.8127 66.0921L56.4719 65.5793L56.4378 65.5684H56.3928L56.279 65.6249L55.9824 65.8072L55.733 65.9904L55.5051 66.1951L55.3231 66.4007L55.1752 66.6054L55.0615 66.8333L54.9709 67.0388L54.9136 67.2895L54.8913 67.5626L54.9022 67.8821L54.9587 68.1902L55.0724 68.5317L55.2321 68.7938L55.4364 69.0445L55.6866 69.261L55.9259 69.4091L56.2326 69.534L56.5284 69.6147L56.8473 69.648L57.1881 69.637L57.3819 69.5915V70.195L57.2564 70.2292L56.9042 70.2866L56.5284 70.3208H56.1303L55.7098 70.2634L55.3568 70.1608L55.016 70.0468L54.7657 69.8987L54.4814 69.694L54.2539 69.4661L54.0378 69.158L53.8789 68.8507L53.7534 68.5426L53.6969 68.2577L53.6514 67.9273L53.6856 67.6651L53.7311 67.4031L53.8216 67.1068L53.9581 66.8328L54.106 66.5707L54.2989 66.3428L54.5947 66.0579L54.8913 65.83L55.1748 65.6245L55.4823 65.454L55.789 65.3058L56.0957 65.1691H56.1189L56.1298 65.1467L56.1189 65.1235L56.0165 64.9977L55.789 64.6563L55.6525 64.4056L55.5047 64.1435L55.3686 63.8472L55.3003 63.5623L55.2321 63.2774L55.2203 63.0153L55.2321 62.719L55.3117 62.4341L55.4255 62.1611L55.5852 61.899L55.7212 61.7166L55.8809 61.5343L56.0738 61.3862L56.279 61.2604L56.5284 61.1578L56.7786 61.0671L57.0402 61.0329H57.3824V61.0324ZM57.3824 81.1905V81.8058L57.2909 81.8168H56.7791L56.3354 81.7936L55.8918 81.7261L55.4596 81.6226L55.0501 81.4863L54.6406 81.2584L54.2989 81.0077L54.0032 80.6996L53.7529 80.3467L53.5828 79.9589L53.4463 79.5486L53.3666 79.0126L53.3093 78.3858L53.287 77.873L53.2638 73.8504L53.2297 73.0303L53.1842 72.5741V72.5521H53.2065L53.8208 72.5745L54.4009 72.5289H54.4127L54.435 72.5521V72.5631L54.4009 73.0193L54.3899 73.8504L54.4131 77.8388L54.4354 78.2951L54.4927 78.8877L54.6065 79.3895L54.7544 79.7651L54.9245 80.0846L55.1525 80.3919L55.4141 80.6198L55.7549 80.8021L56.0957 80.9845L56.4938 81.0984L56.9151 81.1782L57.3132 81.19H57.3824V81.1905ZM48.3167 78.2276V77.6232L49.693 77.6122L49.7162 77.589V77.5548L48.5328 74.2615H48.4996L48.3167 74.6603V73.3165L48.6925 72.4732L48.7034 72.4614V72.4504H48.7376L48.9305 72.4614H48.9764L48.9874 72.4732L48.9983 72.5074L49.3964 73.544L51.6832 79.6174L52.5135 81.6914V81.7256H51.8542L51.2168 81.7138H51.1827V81.7028L50.9324 80.8477L50.0002 78.2727L49.977 78.2386L49.9428 78.2276H48.3167ZM48.3167 69.829V68.9064L48.3285 68.8832L48.4423 68.6443L48.4996 68.4164L48.5451 68.1766V67.858L48.5219 67.595L48.4764 67.3903L48.4191 67.1848L48.3167 67.0143V65.3957L48.5669 65.5556L48.8063 65.738L49.0114 65.9536L49.1934 66.1701L49.3413 66.4331L49.4209 66.7062L49.5005 66.9801L49.546 67.2873L49.5692 67.5722L49.5583 67.8571L49.5124 68.1534L49.4441 68.4374L49.3426 68.7004L49.1947 68.9502L49.0127 69.2009L48.7966 69.4407L48.5687 69.6572L48.3167 69.829ZM48.3167 61.8301V60.9185L48.5669 60.975L49.0114 61.1241L49.0456 61.135V61.1692L48.9309 61.682L48.8404 62.2513V62.2855L48.8294 62.2974H48.7721L48.738 62.2632L48.6015 62.0918L48.4427 61.9204L48.3167 61.8301ZM38.8311 0L38.5244 0.102561L38.2286 0.387452L37.9784 0.797695L37.6708 1.26492L37.4433 1.76632L37.1703 2.17657L36.9087 2.63239L36.6471 3.06543L36.3969 3.54405L36.2945 3.71498V33.0688L36.3059 33.2398L36.34 33.9235L36.3741 34.6187L36.4082 35.3024V36.0089L36.3969 36.7041L36.3514 37.3764L36.2945 37.8778V56.042L36.3969 56.3835L36.5675 56.9414L36.7154 57.4994L36.9087 57.8531L37.0566 58.0586L37.2158 58.2068L37.432 58.2633L37.614 58.2177L37.7846 58.0696L37.9443 57.864L38.1372 57.5335L38.3424 56.9866L38.5244 56.4396L38.7055 55.9044L38.9107 55.3465L39.1036 54.7995L39.2974 54.2748L39.4676 53.7511L39.6273 53.2041L39.7752 52.6803L39.934 52.2815L40.0705 52.0759L40.2407 51.8826L40.48 51.7687L40.7866 51.7231L41.1283 51.7112L41.6402 51.7573L42.2999 51.837L42.9596 51.9168L43.5962 51.9624H44.2559L44.7455 51.9168L45.0071 51.837L45.2573 51.7231L45.4275 51.5749L45.5421 51.3808V51.1761L45.4275 50.9596L45.2797 50.7654L45.0071 50.4924L44.6663 50.1277L44.3023 49.763L43.9492 49.3874L43.6194 49.0228L43.2786 48.6239L42.9596 48.236L42.6298 47.8372L42.2999 47.4502L41.9924 47.0399L41.6625 46.6634L41.3558 46.2422L41.0942 45.7978L40.8439 45.3306L40.6278 44.841L40.48 44.4645L40.4235 44.1682L40.3894 43.861L40.4458 43.587L40.5714 43.3363L40.7643 43.143L41.0028 43.0523L41.2762 43.0063L41.5829 43.0405L41.8904 43.0979L42.2999 43.2346L42.88 43.4051L43.426 43.5993L43.9379 43.804L44.4607 44.0205L44.9502 44.2603L45.4271 44.5224L45.8825 44.8072L46.3379 45.0803L46.7474 45.3766L47.1569 45.7071L47.5318 46.0494L47.8849 46.414L48.2371 46.7778L48.3167 46.8804V43.0975L48.1356 43.0059L47.8853 42.8809L47.6351 42.767L47.464 42.5956L47.328 42.4133L47.3503 42.22L47.4982 42.0486L47.6692 41.9005L47.9308 41.7756L48.2152 41.7181L48.3167 41.7072L48.3171 39.5648L48.2603 39.5762L47.6688 39.7129L47.0887 39.8155L46.4854 39.8953L45.8488 39.9864L45.2573 40.0776L44.6659 40.1802L44.0626 40.2485L43.4824 40.2827L42.9938 40.2485L42.7322 40.1916L42.5042 40.0548L42.3454 39.8497L42.2658 39.5762V39.3027L42.3113 38.995L42.3795 38.6987L42.516 38.2885L42.6748 37.6959L42.8336 37.1147L42.9824 36.545L43.1644 35.9524L43.3455 35.4282L43.5958 34.9154L43.8582 34.4486L44.1308 33.9928L44.4152 33.5483L44.7109 33.1039L45.0298 32.7283L45.4048 32.3408L45.7797 32.0332L46.201 31.7255L46.6446 31.452L47.0882 31.1899L47.566 30.951L48.0778 30.7801L48.3163 30.7231L48.3167 24.306L47.9755 24.4998L47.566 24.7733L47.1565 25.1037L46.747 25.4228L46.383 25.7419L45.9849 26.0838L45.6209 26.437L45.2678 26.8017L44.9498 27.2119L44.6422 27.6222L44.3124 28.0324L44.0048 28.4541L43.7213 28.8871L43.4024 29.3087L43.0957 29.7304L42.8223 30.1862L42.5607 30.6534L42.3222 31.1548L42.1061 31.6676L41.9009 32.1804L41.6848 32.716L41.4919 33.2516L41.2981 33.8214L41.1393 34.3793L40.9804 34.9605L40.7985 35.5417L40.6396 36.1115L40.5141 36.7155L40.3662 37.3194L40.2183 37.8436L40.1046 38.2425L40.0591 38.459V38.6641L40.0132 38.8464L39.9226 38.9946L39.8312 38.9604L39.7515 38.7439L39.661 38.5046L39.5472 38.0943L39.5013 37.4452L39.4672 36.7729L39.5013 36.0891L39.5472 35.3826L39.6037 34.6875L39.6719 34.0037L39.7515 33.3314L39.8198 32.6704L39.9335 32.0209L40.0359 31.3827L40.1724 30.756L40.3203 30.1862L40.5132 29.6164L40.6843 29.0471L40.8431 28.4545L41.0019 27.8847L41.1729 27.3263L41.3781 26.7907L41.5942 26.2779L41.8104 25.7309L42.0488 25.2295L42.2649 24.7281L42.481 24.2039L42.6862 23.6911L42.9137 23.1669L43.0839 22.6541L43.2777 22.1417L43.4479 21.6289L43.5844 21.0933L43.7209 20.5236L43.8346 19.9652L43.9484 19.384L44.0621 18.7914L44.1986 18.2216L44.2669 17.6291L44.301 17.0593L44.3465 16.5237L44.4029 15.9767L44.4489 15.4183L44.4598 14.8371L44.4707 14.2446L44.4484 13.641L44.4025 13.0143L44.3351 12.3989L44.2437 11.7949L44.1531 11.1796L44.0394 10.5984L43.9247 10.0176L43.7887 9.44787L43.6176 8.92367L43.4356 8.39947L43.2195 7.89806L42.992 7.39665L42.7868 6.92943L42.5484 6.43942L42.3091 5.97219L42.0589 5.53916L41.8204 5.04915L41.5811 4.59332L41.3309 4.1261L41.0924 3.65888L40.8649 3.16887L40.6147 2.72444L40.3645 2.26861L40.1252 1.83601L39.909 1.31181L39.6255 0.844593L39.398 0.411558L39.1137 0.126667L38.8311 0ZM48.3167 54.2981V60.3605H47.6115L47.009 60.258L46.4512 60.098L45.9284 59.8933L45.4166 59.6768L44.9047 59.4489L44.4384 59.1868L44.0061 58.8896L43.6312 58.5592L43.2672 58.2063L42.915 57.8184L42.5733 57.4428L42.2553 57.044L42.0392 56.7591L41.9027 56.5084L41.8231 56.2353L41.8121 55.9504L41.8917 55.6883L42.0505 55.506L42.3008 55.4486L42.5733 55.4604L42.87 55.5511L43.1657 55.6195L43.6434 55.6993L44.2909 55.7567L44.9283 55.7677L45.5649 55.7453L46.1227 55.6086L46.6455 55.4144L47.1119 55.1988L47.5664 54.9358L47.9759 54.6285L48.3167 54.2981ZM48.3163 17.0816V21.6622L48.1697 21.7534L47.7252 22.0383L47.3157 22.3232L46.8835 22.6195L46.4854 22.9272L46.1446 23.1323L45.9171 23.2462L45.6778 23.3488H45.4616L45.2687 23.2804L45.1659 23.1095L45.1318 22.825L45.1659 22.5288L45.3138 22.1071L45.5299 21.5943L45.746 21.0929L45.9735 20.5801L46.2238 20.0787L46.4631 19.6001L46.7356 19.1442L47.0432 18.6998L47.3498 18.2896L47.6688 17.8789L47.9877 17.4686L48.3163 17.0816ZM48.3167 60.9185V61.8301L48.1806 61.7385L47.8617 61.5904L47.566 61.4887L47.247 61.4427L46.9513 61.4317L46.6332 61.4659L46.2916 61.5685L46.0299 61.6934L45.7915 61.8867L45.5863 62.1488L45.4385 62.3885L45.3702 62.6392L45.3247 62.8671V63.1069L45.3588 63.3116L45.4262 63.5281L45.5286 63.7337L45.6423 63.9269L45.7911 64.1202L45.984 64.257L46.3021 64.4849L46.7575 64.7132L47.8385 65.1577L48.3154 65.3965V67.0152L48.2931 66.9919L48.1566 66.8096L47.9636 66.604L47.6679 66.3994L47.2698 66.1938L46.8144 65.9891L46.0299 65.6354L45.711 65.4754L45.4153 65.3049L45.165 65.1108L44.9266 64.8951L44.7669 64.6444L44.619 64.3823L44.5394 64.1194L44.4712 63.8121L44.4489 63.4816L44.4712 63.1621L44.5394 62.7633L44.6532 62.4104L44.8129 62.0909L45.0058 61.817L45.2219 61.5781L45.4721 61.3616L45.7447 61.1683L46.0978 61.0083L46.4499 60.8834L46.803 60.8151L47.156 60.7809L47.52 60.8041L47.9864 60.8497L48.3167 60.9185ZM48.3167 68.9064V69.829L48.2712 69.8632L47.8731 70.0797L47.4295 70.2511L46.964 70.3536L46.4976 70.4102L45.9407 70.422L45.428 70.376L44.8597 70.2853L44.416 70.1713L44.3705 70.1595L44.3587 70.1485V70.1143L44.4384 69.7606L44.4725 69.4302L44.5066 69.0545L44.5184 69.0322L44.5517 69.0204H44.5976L44.654 69.0436L44.8251 69.2369L45.1318 69.4652L45.4275 69.6467L45.7351 69.7606L46.0759 69.8632L46.4289 69.9092L46.7479 69.8974L47.1119 69.8408L47.4299 69.715L47.6802 69.6011L47.9418 69.3846L48.1697 69.1339L48.3167 68.9064ZM48.3167 73.3165V74.6603L46.9067 77.5667V77.589L46.9176 77.6122H46.9517L47.5773 77.6232H48.3167V78.2276H46.6451L46.6341 78.2386L46.6109 78.2727L45.3256 81.1449L45.1095 81.7028L45.0977 81.7138H44.609L44.1081 81.7256H44.0857V81.7028L44.9161 80.1758L48.1802 73.6005L48.3167 73.3165ZM36.2945 73.2249V72.5407L37.0339 72.5298L37.5116 72.5074L37.5343 72.5184V72.905L37.5685 73.2473V73.2696H37.5343L37.0339 73.2363L36.2945 73.2249ZM36.2945 66.707V66.0803L37.6367 66.0693H37.6708L37.6822 66.0575V66.0233L36.5106 62.7422V62.719H36.4992L36.4765 62.7422L36.2945 63.1292V61.7622L36.6585 60.9531L36.6699 60.9299H36.9087L36.9315 60.9531H36.9542L36.9656 60.9755L37.3637 62.0243L39.6273 68.0868L40.48 70.1722V70.2064H39.1837L39.1496 70.1832L39.1377 70.1722L38.8993 69.3289L37.9661 66.7421L37.932 66.7079H36.2945V66.707ZM41.6516 67.0375V68.462L41.6061 69.6467L41.5829 70.1595V70.1827L41.5947 70.2059H42.1398L42.7881 70.2169L42.8223 70.2059L42.8332 70.1718L42.8109 69.6357L42.7654 68.4852L42.7536 67.0033V62.9697L42.7768 61.9897L42.7877 61.5685L42.8218 61.0666V61.0215H42.7763L42.1962 61.0324L41.6393 61.0092L41.6052 61.021H41.5942V61.032L41.6166 61.5339L41.6397 62.0234L41.6507 62.9583V67.0375H41.6516ZM39.8657 81.7142H41.1738L42.5725 81.7261L43.2322 81.7594L43.244 81.7484H43.2663V81.7142L43.2781 81.2588L43.2891 81.0081V80.9963L43.2781 80.9853H43.244L42.4819 81.0086L40.525 81.0883H39.8998V81.0542L39.8775 79.8353L39.8657 77.9322L39.8775 77.2138L39.8998 77.2029L39.9108 77.1796L39.934 77.1687H40.9918L42.152 77.2143L42.8691 77.2485H42.88L42.891 77.2252V77.2143L42.88 76.8947L42.9141 76.5533L42.891 76.5424V76.5305H42.8686L42.2544 76.5537L40.9686 76.5879L39.9226 76.5647H39.8994L39.8771 76.5537V75.8696L39.9226 74.0805L39.979 73.1697V73.1465L40.0022 73.1355H40.0254L40.7757 73.1237L42.3563 73.192L43.1307 73.2495H43.1648V73.2262L43.1758 72.8274L43.1867 72.5995L43.1758 72.5653H42.4246L40.9013 72.5995L39.5932 72.5653L38.7514 72.5311H38.7282L38.7051 72.5543L38.6941 72.5653V72.5995L38.7396 73.636L38.7514 76.0405V77.9778L38.6941 80.6211L38.6259 81.6927V81.7151L38.6377 81.7269H39.2178L39.8657 81.7142ZM36.2945 3.71498L36.1353 3.98891L35.8509 4.44474L35.6006 4.90057L35.3276 5.35639L35.066 5.80082L34.793 6.25665L34.5542 6.72387L34.2812 7.19109L34.0537 7.65831L33.8262 8.15972L33.6101 8.67252L33.4167 9.19672L33.2461 9.75511L33.0982 10.3135L32.9508 10.9175L32.8484 11.4986L32.7346 12.1026L32.6323 12.7408L32.5413 13.3561L32.4958 13.9373L32.473 14.5527V15.6808L32.5185 16.2278L32.5299 16.7748V17.356L32.5868 17.9258L32.6778 18.5184L32.7797 19.1114L32.8593 19.6921L32.939 20.2619L33.0409 20.8317L33.1551 21.3787L33.3029 21.9029L33.4622 22.4157L33.6442 22.9399L33.8266 23.4755L33.9972 23.9997L34.202 24.5239L34.4067 25.0595L34.6115 25.5723L34.7821 26.0965L34.9755 26.6207L35.1461 27.1791L35.3053 27.7374L35.4418 28.3414L35.5783 28.934L35.7034 29.5038L35.8627 30.0731L35.9878 30.6543L36.0902 31.281L36.1702 31.9302L36.2499 32.5683L36.2954 33.0697V3.71542L36.2945 3.71498ZM36.2945 37.8778V56.042L36.2376 55.8474L36.067 55.2781L35.8964 54.7311L35.7144 54.1841L35.5893 53.6481L35.4528 53.1129L35.3276 52.5541L35.1911 52.1785L35.066 51.962L34.884 51.7573L34.6679 51.6315L34.3722 51.5631L34.0309 51.5289L33.5077 51.5521L32.8593 51.6096L32.1882 51.6551L31.5512 51.6661L31.3692 51.6551V49.0341L31.6764 48.7146L32.0176 48.3618L32.3702 47.9739L32.7228 47.5983L33.0527 47.2227L33.3939 46.8348L33.7466 46.4592L34.0537 46.0603L34.338 45.6382L34.6224 45.1829L34.8613 44.7156L35.0205 44.3286L35.0888 44.0437L35.1343 43.7356L35.0888 43.4516L34.975 43.1886L34.8158 43.0063L34.5769 42.8923L34.3039 42.8358L33.9741 42.8468L33.7011 42.9042L33.2574 43.0059L32.6887 43.1549L32.1313 43.3254L31.5967 43.5077L31.3692 43.5993V39.8957L31.6309 39.9413L32.2337 39.9983H32.7001L32.9617 39.9413L33.2119 39.8273L33.3939 39.6336L33.4622 39.3715L33.4963 39.0752L33.4508 38.7675L33.4053 38.4941L33.2916 38.061L33.1551 37.4798L33.03 36.8759L32.9048 36.2947L32.757 35.7021L32.5863 35.1437L32.3816 34.6537L32.1313 34.1637L31.9039 33.6969L31.6195 33.2411L31.3692 32.8309V26.8359L31.4034 26.8928L31.6991 27.3145L31.9835 27.7361L32.2678 28.1806L32.5522 28.6022L32.8366 29.0466L33.1096 29.4792L33.3826 29.9578L33.6101 30.4365L33.8262 30.9493L34.0082 31.4621L34.2015 32.0091L34.3835 32.5333L34.5655 33.0802L34.7134 33.6614L34.8613 34.2312L34.9864 34.8238L35.1343 35.3936L35.248 35.9861L35.3731 36.6015L35.4869 37.1827L35.612 37.7297L35.703 38.1285L35.7371 38.3564V38.5502L35.7599 38.7439L35.8509 38.892L35.9191 38.8574L36.0215 38.6523L36.1348 38.413L36.2713 38.0027L36.2945 37.8778ZM31.3697 22.779V22.7676L31.4152 22.4713L31.4038 22.1978L31.3697 22.0729V22.779ZM31.3697 58.1038L31.5744 57.9105L31.9612 57.58L32.3142 57.1921L32.6437 56.8275L32.8939 56.5202L33.0076 56.2805L33.11 56.0184L33.1328 55.7563L33.0873 55.46L32.9394 55.2776L32.6778 55.1979H32.3934L32.109 55.2886L31.8133 55.3342L31.3697 55.3802V58.1038ZM36.2945 61.7622V63.1292L34.884 66.0233V66.0693H34.9182L35.5779 66.0803H36.2945V66.707H34.611L34.5769 66.7412L33.3029 69.6134L33.0868 70.1713L33.0755 70.1823L33.0409 70.2055H32.5859L32.0745 70.2165L32.0631 70.2055L32.0404 70.1823V70.1713L32.8935 68.6443L36.1466 62.0922L36.2945 61.7622ZM36.2945 72.5407V73.2253L35.2366 73.1912H34.6907V73.2253L34.6793 73.704L34.6565 75.1626L34.6679 79.0139L34.7134 80.8262L34.7589 81.6927V81.7151L34.7362 81.7269H34.6907L34.1224 81.7151L33.5991 81.7269H33.565V81.6927L33.5991 80.8035L33.6105 79.0143L33.6446 75.1065L33.656 73.7276L33.6446 73.2258V73.2148L33.6219 73.1916H33.6105L33.0304 73.1806L31.3697 73.2381V72.5197L32.9963 72.5539L35.1916 72.5648L36.2945 72.5407ZM31.3697 81.7265H32.0858L32.1086 81.7147L32.0858 81.6923L31.3692 79.8914L31.3697 81.7265ZM31.3697 70.2401V69.5218L31.6086 69.4985H31.6199L31.6313 69.5104V69.5327L31.6199 69.8632L31.6313 70.2511L31.6199 70.262H31.6086L31.3697 70.2401ZM31.3692 26.8359L31.0967 26.4598L30.7668 26.0724L30.4028 25.6967L30.0502 25.3663L29.6748 25.0016L29.2881 24.6711L28.9127 24.3407L28.5033 24.0102L28.0596 23.7367L27.9004 23.6455V30.2432L28.0938 30.2887L28.6056 30.4825L29.072 30.7446L29.4928 31.0409L29.9251 31.3371L30.3232 31.6562L30.6986 32.0095L31.0512 32.3742L31.3469 32.7958L31.3697 32.83L31.3692 26.8359ZM31.3697 39.8944L31.0512 39.8374L30.4597 39.7121L29.8682 39.5867L29.2654 39.4728L28.6511 39.3702L28.0824 39.2335L27.9004 39.1879V41.3644L27.9573 41.3986L28.1506 41.5577L28.2871 41.7624V41.9566L28.1393 42.1499L27.9459 42.2757L27.9004 42.298V45.58L28.2985 45.2376L28.708 44.9304L29.163 44.6683L29.5952 44.3834L30.0843 44.1445L30.5621 43.9162L31.0735 43.7005L31.3692 43.598L31.3697 39.8944ZM27.9004 20.8878L28.0369 20.9789L28.4464 21.2752L28.8672 21.5829L29.2767 21.902L29.6862 22.1983L30.0843 22.5178L30.3915 22.7571L30.6076 22.8825L30.8578 22.985L31.0739 23.0078L31.2564 22.9394L31.3701 22.7799V22.0738L31.2677 21.7661L31.0971 21.2419L30.8924 20.7291L30.6876 20.2049L30.4601 19.7035L30.2326 19.2135L29.9938 18.7349L29.7208 18.2904L29.425 17.8574L29.1293 17.4472L28.8222 17.0141L28.5378 16.5925L28.2193 16.1823L27.9008 15.8062L27.9004 20.8878ZM27.9004 59.7447L28.3099 59.6422L28.8445 59.4831L29.3564 59.2889L29.8678 59.0842L30.3455 58.8563L30.8005 58.5714L31.1986 58.2519L31.3697 58.1038L31.3692 55.3806L31.3124 55.3916L30.664 55.414L30.027 55.403L29.4128 55.3346L28.8554 55.1865L28.3549 54.9932L27.9 54.7425L27.9004 59.7447ZM31.3697 49.0333L31.3128 49.0789L30.9488 49.4326L30.5621 49.774L30.1981 50.1386L29.9247 50.4016L29.7654 50.584L29.6403 50.7996L29.6289 51.0052L29.7313 51.1984L29.9019 51.3584L30.1408 51.4724L30.4251 51.5521L30.8915 51.6205L31.3692 51.6551L31.3697 49.0333ZM31.3697 69.5218V70.2401L31.0512 70.2169H29.3677L27.9004 70.2279V61.0092L28.1961 60.9869L28.2189 61.0092H28.2416V61.0324L28.1848 61.5904L28.162 62.183L28.1393 63.5167L28.1506 66.81L28.162 68.1087L28.2075 69.1461L28.2421 69.6015V69.6357H28.2648L29.9938 69.6134L31.0061 69.556L31.3697 69.5218ZM31.3697 72.5188V73.2372H31.1081L30.6531 73.2828H30.6417L30.6303 73.2709V73.2486L30.6417 72.8839V72.5193L30.6644 72.5083L31.1422 72.5193L31.3697 72.5197V72.5188ZM31.3697 79.8909L31.2559 79.6179L28.9696 73.5444L28.5715 72.5079L28.5601 72.4737L28.5487 72.4618H28.5033L28.3213 72.4509H28.2985V72.4618L28.2871 72.4737L27.9004 73.3047V74.6835L28.0938 74.2615H28.1165L29.2881 77.5548V77.589L29.2767 77.6122L27.9004 77.6232V78.2276H29.5156L29.5611 78.2386L29.5725 78.2727L30.5052 80.8477L30.7554 81.7028L30.7668 81.7138H30.7896L31.3697 81.7256V79.8909ZM27.9004 23.6455L27.5933 23.4855L27.1155 23.2348L26.615 23.0183L26.1032 22.825L25.5572 22.6537L24.9543 22.5055L24.3401 22.4258L23.7031 22.4144L23.0661 22.4713L22.4974 22.6081L21.9628 22.7676L21.4509 22.9727L20.9959 23.2462L20.5637 23.5425L20.177 23.873L19.8016 24.2149L19.4717 24.6251L19.1874 25.0354L18.9144 25.4912L18.6982 25.9926L18.5049 26.54L18.3684 27.1094L18.266 27.6791L18.2205 28.2831L18.2546 28.8643L18.3229 29.4569L18.4707 30.0266L18.6527 30.539L18.8689 31.0632L19.1077 31.5418L19.3807 31.9749L19.6992 32.3851L20.0405 32.784L20.3817 33.1372L20.7571 33.4905L21.1552 33.81L21.5647 34.1177L21.9742 34.4254L22.4064 34.7217L22.8614 34.9724L23.214 35.1661L23.4761 35.2686L23.76 35.3484L24.0216 35.3712L24.3174 35.3028L24.488 35.1433L24.5676 34.8926L24.5448 34.6533L24.4652 34.3798L24.3629 34.1063L24.2036 33.7416L24.0557 33.1718L24.0102 32.5451L24.0785 31.9753L24.2605 31.4511L24.4766 30.9839L24.7268 30.6994L24.9202 30.5171L25.0908 30.3348L25.3297 30.2094L25.5913 30.1073L25.8643 30.0389L26.3534 30.0161L26.9677 30.0389L27.5364 30.141L27.9004 30.2432V23.6455ZM27.9004 39.1879V41.3644L27.707 41.2842L27.4336 41.2167L26.9449 41.1484L26.3762 41.0116L25.7847 40.8977L25.1932 40.7609L24.6131 40.6128L24.0216 40.4874L23.4529 40.3507L22.8614 40.2025L22.3268 40.0316L21.7694 39.872L21.2234 39.6783L20.7229 39.4618L20.2338 39.2339L19.7447 39.0174L19.2329 38.8009L18.7324 38.5616L18.266 38.3336L17.7996 38.0601L17.356 37.798L16.9124 37.5245L16.4688 37.2283L16.0479 36.9548L15.8887 36.8522V30.9725L15.9797 31.1548L16.2527 31.5992L16.5257 32.0551L16.8214 32.4653L17.1285 32.887L17.447 33.2744L17.7996 33.65L18.1636 34.0147L18.5162 34.3793L18.903 34.7212L19.2784 35.0403L19.6878 35.3708L20.1087 35.6785L20.5409 35.9519L21.0073 36.214L21.4623 36.4761L21.9405 36.7155L22.4064 36.9662L22.8841 37.2169L23.3505 37.4676L23.8282 37.6955L24.3287 37.9344L24.8297 38.1509L25.3415 38.3674L25.8534 38.5497L26.3994 38.7434L26.9454 38.9144L27.4913 39.0739L27.9004 39.1879ZM15.8891 21.4576L16.0484 21.2524L16.3782 20.8764L16.7309 20.5231L17.1403 20.204L17.5498 19.9078L18.0162 19.6343L18.4939 19.3949L19.0172 19.2017L19.5741 19.0421L20.1883 18.9396L20.8594 18.883L21.5533 18.8484H22.2358L22.8837 18.9286L23.4756 19.0426L24.0557 19.1907L24.6358 19.3388L25.1477 19.5326L25.6596 19.7377L26.1942 19.9542L26.6719 20.1707L27.161 20.41L27.5933 20.6835L27.9004 20.8887V15.8053H27.889L27.525 15.4521L27.1724 15.0874L26.8084 14.7113L26.4331 14.3581L26.0463 14.039L25.6141 13.7427L25.1936 13.4578L24.75 13.1615L24.3405 12.8652L23.8856 12.6031L23.4192 12.341L22.9301 12.1022L22.4296 11.8966L21.895 11.7143L21.3262 11.5434L20.7461 11.4294L20.1323 11.3268L19.4722 11.2361L18.8011 11.2133L18.1413 11.1905L17.4816 11.2247L16.8787 11.2703L16.2872 11.3615L15.8891 11.4526V21.4576ZM27.9004 42.2989L27.6843 42.3787L27.4454 42.4926L27.07 42.6749L26.5695 42.8915L26.0691 43.097L25.5572 43.3249L25.0795 43.5528L24.6358 43.8377L24.1809 44.0998L23.7491 44.3738L23.3054 44.6701L22.8618 44.9431L22.4523 45.2512L22.0428 45.5817L21.6675 45.9012L21.2807 46.254L20.9509 46.6297L20.6096 47.0062L20.2798 47.3932L19.9726 47.8043L19.6997 48.2597L19.4494 48.7269L19.2333 49.2507L19.0399 49.7635L18.8579 50.3105L18.7214 50.8916L18.6195 51.507L18.574 52.1679V52.8289L18.6536 53.4557L18.756 54.071L18.9039 54.6404L19.0859 55.1532L19.3361 55.6436L19.6318 56.0539L19.9503 56.4641L20.2802 56.863L20.6442 57.2044L21.0191 57.5581L21.4172 57.8653L21.8609 58.1625L22.2817 58.4465L22.7367 58.7204L23.1917 58.9711L23.6808 59.2219L24.204 59.4265L24.7273 59.5979L25.3074 59.6886L25.8989 59.7802L26.5131 59.8368L27.1273 59.8486L27.7302 59.7912L27.9008 59.7456V54.7429L27.8781 54.732L27.4458 54.4357L27.0591 54.1162L26.7065 53.7515L26.4107 53.3185L26.1491 52.8631L25.8989 52.3845L25.6941 51.8826L25.5576 51.3589L25.4666 50.8V50.2307L25.5349 49.6381L25.66 49.0793L25.842 48.5555L26.0467 48.0318L26.2629 47.5413L26.5245 47.075L26.8202 46.6639L27.1728 46.265L27.5255 45.9122L27.9008 45.5817L27.9004 42.2989ZM27.9004 61.0092V70.2279H27.7298L27.0132 70.262H26.979L26.9677 70.2511V70.2169L27.0245 69.1571L27.07 68.0863L27.0928 66.81V63.5167L27.0587 62.1606L27.0245 61.568L26.979 61.0552V61.0092H27.0132L27.5819 61.021L27.9004 61.0092ZM27.9004 73.3047V74.6835L26.5127 77.5667L26.5013 77.589L26.5127 77.6122H26.524L27.1724 77.6232H27.9004V78.2276H26.2283L26.2056 78.2386L26.1942 78.2727L24.8979 81.1449L24.6932 81.7028L24.6818 81.7138H24.1813L23.7036 81.7256H23.6694V81.7028L24.5112 80.1758L27.7525 73.6005L27.9004 73.3047ZM15.8891 81.7265V72.553H16.2759V72.5749L16.2531 73.0877L16.2076 74.4898L16.219 76.438V76.449L16.2304 76.4608H16.2645L17.2996 76.495L18.3916 76.506H19.529L20.4618 76.495L21.4059 76.4608H21.4286V74.4898L21.3831 73.0763L21.3604 72.5635V72.5293H21.4059L21.9746 72.5526L22.5433 72.5293H22.5888L22.6002 72.5526V72.5749L22.5775 73.0877L22.532 74.4898L22.5433 79.0704L22.5888 81.1444L22.6002 81.6914V81.7256H21.3604V81.7028L21.3831 81.19L21.4286 78.9679V77.0762H21.4172L21.4059 77.0652L20.5186 77.0429L19.4835 77.0197H18.3006L17.22 77.0429L16.2531 77.0652L16.219 77.0762V79.0135L16.2759 81.1563L16.31 81.7033V81.7265H15.8891ZM15.8891 67.368V65.6472L19.1191 69.556L19.4148 69.8755L19.6651 70.1262V70.1485L19.6765 70.1595L19.6651 70.1713L19.6423 70.1823H19.1646L18.63 70.2055L18.3001 70.2165H18.2433L18.2091 70.2055L18.1978 70.1713L17.2537 69.0541L16.1731 67.7213L15.8891 67.368ZM15.8891 65.6021V65.1467L16.2304 65.0551L16.5602 64.8837L16.8218 64.6791L17.038 64.3942L17.1972 64.1435L17.2996 63.8362L17.3565 63.5281L17.3792 63.2318V62.9123L17.2996 62.6392L17.1745 62.3088L16.9697 61.9892L16.7309 61.7846L16.4692 61.6246L16.1166 61.522L15.8891 61.4764V61.021L16.3669 61.032L16.7081 61.0776L17.118 61.1802L17.4475 61.3283L17.8115 61.5448L18.1072 61.8411L18.3119 62.1483L18.4598 62.502L18.5167 62.8093L18.5281 63.1065L18.5167 63.3686L18.4598 63.6758L18.3574 63.9839L18.2209 64.257L18.0389 64.5419L17.8342 64.7474L17.6295 64.9179L17.3451 65.1003L17.0152 65.2716L16.6285 65.4198L16.31 65.5223L15.9119 65.6021H15.8891ZM15.8891 55.4946V54.3432H17.4361V55.4946H15.8891ZM22.0424 70.1827H23.3619L24.7496 70.2169L25.4321 70.2279H25.4435L25.4548 70.2169V70.2059L25.4662 69.7155L25.4889 69.4876V69.4652L25.4662 69.4534H25.4435L24.6813 69.499L22.7249 69.5564L22.0993 69.5674H22.0883L22.077 69.5564V69.5332L22.0656 68.3143L22.0428 66.388L22.077 65.7047V65.6705L22.0883 65.6586H23.1689L24.3405 65.6819L25.0458 65.7161H25.0795V65.6819L25.0567 65.3514L25.0908 65.0442V65.01H25.0795L25.0567 64.9981L24.4429 65.0214L23.1462 65.0555H22.077V65.0214L22.0656 64.3262L22.0997 62.5371L22.168 61.6364V61.6141H22.1793L22.2021 61.5908H22.9528L24.5453 61.6715L25.3301 61.728H25.3415L25.3529 61.7171V61.6938L25.3643 61.3059L25.387 61.0671V61.0561L25.3643 61.0329H24.6249L23.0893 61.0671L21.7812 61.0329L20.9509 61.0219H20.9054L20.894 61.0329V61.0785L20.9281 62.1041L20.9509 64.4976V66.4458L20.894 69.0782L20.8144 70.1722L20.8258 70.2064L20.8713 70.2173L21.4059 70.2064L22.0424 70.1827ZM15.8887 30.9725L15.7413 30.6762L15.5138 30.1862L15.2976 29.6734L15.0929 29.1606L14.9109 28.6022L14.7858 28.021L14.6948 27.417L14.6379 26.7675V25.5254L14.672 24.8986L14.7517 24.2946L14.8881 23.7021L15.0588 23.1665L15.2635 22.6537L15.4683 22.1413L15.7185 21.6855L15.8891 21.4576V11.4522L15.7067 11.4864L15.1607 11.6459L14.6375 11.8396L14.1256 12.0334L13.6251 12.2499L13.1246 12.5006L12.6583 12.7399L12.2715 12.9336V33.9577L12.408 34.0945L12.7834 34.4591L13.1474 34.8128L13.5227 35.1433L13.9095 35.4852L14.3303 35.7814L14.7512 36.0659L15.1835 36.3736L15.6043 36.6699L15.8887 36.8522V30.9725ZM15.8891 54.3432V55.4946H12.272V54.3432H15.8891ZM15.8891 61.0215V61.4769L15.7754 61.4659L15.3545 61.4427H14.9109L14.5697 61.5111L14.5355 61.522L14.5246 61.5339V61.568L14.4791 62.0467L14.4222 63.8239L14.3995 65.2028V65.226L14.4222 65.2594H14.9341L15.4346 65.226L15.8554 65.1577L15.8891 65.1467V65.6021H15.8782V65.6358L15.8896 65.6468V67.3675L14.6042 65.7384H14.4222L14.3995 65.7608V65.784L14.4222 68.4962L14.4791 69.715L14.5018 70.2169V70.2279L14.4905 70.2511H14.4791L13.8307 70.2169L13.262 70.2279H13.2279L13.2165 70.2169V70.1827L13.2506 69.6931L13.2729 68.5303L13.2957 61.8183L13.2616 61.0324V61.0215L13.2729 61.0092H13.3071L13.6483 61.0324H14.0232L15.3541 61.0092L15.8891 61.0215ZM15.8891 72.553V81.7265H15.6616L15.0815 81.7489L15.0588 81.7265L15.0474 81.7147V81.6923L15.0815 81.1905L15.127 78.9911L15.1043 74.4898L15.0588 73.0877L15.0474 72.564V72.553L15.0588 72.5298H15.0929L15.6389 72.553H15.8891ZM12.2724 81.8396V81.2251L12.7046 81.077L13.2279 80.7465L13.6829 80.37L13.8535 80.1653L13.8762 80.1421L13.9104 80.1311L13.9331 80.1421L13.9559 80.1653V80.2218L13.808 80.7465L13.7061 81.236L13.6833 81.2935L13.6492 81.339L13.6037 81.3846L13.3197 81.5104L12.7624 81.7037L12.2724 81.8396ZM12.2724 73.1684V72.4272L12.4544 72.4614L13.262 72.7577L13.7852 73.0084L13.8194 73.0316V73.1224L13.5691 74.2396L13.5577 74.2619H13.4781L13.4212 74.2396L13.1596 73.8407L12.807 73.4761L12.352 73.1912L12.2724 73.1684ZM12.2724 12.9336L12.1814 12.9792L11.7719 13.2755L11.3624 13.6174L10.9757 13.9364L10.6231 14.3011L10.2704 14.6885L9.94058 15.0532L9.58796 15.4293L9.26947 15.8281L8.97373 16.2611L8.71211 16.6942L8.48462 17.207L8.30262 17.7426L8.10925 18.2782L7.89313 18.7796L7.69976 19.3038L7.54051 19.8736L7.40402 20.4547L7.30165 21.0701L7.19927 21.6969L7.13103 22.3122L7.10828 22.939L7.15377 23.543L7.24477 24.1583L7.33577 24.7737L7.46089 25.3663L7.63151 25.9019L7.81394 26.4489L8.00732 26.9731L8.16656 27.5314L8.32581 28.0894L8.53055 28.6022L8.76942 29.1036L9.01967 29.5594L9.26991 30.038L9.53153 30.4939L9.80452 30.9383L10.1003 31.3485L10.4192 31.7702L10.7263 32.169L11.0221 32.5907L11.3633 33.0014L11.6932 33.3774L12.0458 33.7421L12.2733 33.9586V12.9336H12.2724ZM12.272 54.3432V55.4946H0.5V54.3432H12.272ZM12.2724 72.4272V73.1684L11.7378 72.9742L11.1349 72.8835L10.4183 72.9409L9.72446 73.1342L9.08748 73.4305L8.53012 73.8749L8.09788 74.4101L7.75664 75.0719L7.51777 75.7894L7.41539 76.4622L7.39264 77.1455L7.43814 77.8406L7.59739 78.6273L7.85901 79.3448L8.223 79.9716L8.71211 80.4962L9.29222 80.8951L9.99745 81.2023L10.6686 81.3504L11.3624 81.396L12.1245 81.2821L12.2724 81.2255V81.8396L12.1359 81.8742L11.3624 82H10.5548L9.75902 81.8742L9.01967 81.6463L8.31443 81.3158L7.68882 80.8714L7.17696 80.3476L6.74472 79.7664L6.4376 79.1511L6.21011 78.3192L6.08499 77.4076L6.11911 76.5985L6.23286 75.8924L6.47173 75.1863L6.92672 74.3995L7.34758 73.8416L7.87082 73.363L8.47368 72.9418L9.13341 72.6337L9.88414 72.4281L10.8055 72.3032L11.579 72.3141L12.2724 72.4272Z" fill="white"/>
</svg>
