<svg xmlns="http://www.w3.org/2000/svg" xmlns:xlink="http://www.w3.org/1999/xlink" style="isolation:isolate" viewBox="0 0 1100 861" width="1100pt" height="861pt"><defs><clipPath id="_clipPath_013UMR0hECALPE7AxxFSrVsIKYUo8yGy"><rect width="1100" height="861"></rect></clipPath></defs><g clip-path="url(#_clipPath_013UMR0hECALPE7AxxFSrVsIKYUo8yGy)"><rect width="1100" height="861" style="fill:rgb(0,0,0)" fill-opacity="0"></rect><path d=" M 282.59 78.123 L 259.285 78.123 L 259.285 74.129 L 307.8 74.129 C 309.303 78.416 310.915 82.813 312.417 87.284 C 315.605 96.628 318.72 106.008 321.908 115.316 C 325.096 124.623 328.137 133.637 331.252 142.541 C 334.073 150.676 336.895 158.811 339.716 166.982 C 342.025 173.688 344.297 180.394 346.605 187.099 C 346.951 187.72 347.37 188.298 347.851 188.821 C 349.463 184.278 350.966 180.174 352.358 175.996 C 356.939 162.439 361.482 148.844 366.063 135.286 C 369.104 126.346 372.255 117.441 375.333 108.5 C 378.411 99.559 381.563 90.179 384.751 80.871 C 385.557 78.526 386.693 76.291 387.645 74.019 L 434.145 74.019 C 435.904 74.898 435.977 76.291 435.281 78.123 L 412.709 78.123 L 412.196 78.673 C 412.105 78.777 412.041 78.903 412.013 79.039 C 412.013 79.589 412.013 80.175 412.013 80.724 C 412.013 128.36 412.013 175.996 412.013 224.255 L 423.922 224.255 L 435.574 224.255 L 435.574 227.259 C 432.276 227.846 370.387 227.955 365.513 227.259 L 365.513 224.291 L 388.195 224.291 L 388.781 223.741 C 388.781 223.741 389.001 223.521 389.001 223.412 C 389.001 176.704 389.001 129.996 389.001 83.289 C 389.001 83.069 388.745 82.85 388.488 82.373 C 385.557 90.947 382.625 99.339 379.767 107.767 C 374.051 124.476 368.347 141.185 362.655 157.895 C 360.2 165.003 357.598 172.039 355.326 179.111 C 349.781 195.136 344.272 211.161 338.8 227.186 C 338.537 228.151 338.177 227.626 338.177 227.626 C 337.189 225.892 336.379 224.063 335.759 222.166 C 331.509 209.964 327.368 197.725 323.117 185.523 C 320.662 178.415 317.987 171.416 315.532 164.307 C 313.077 157.198 310.915 150.346 308.533 143.384 C 304.014 130.095 299.446 116.818 294.829 103.553 C 292.521 96.884 290.029 90.215 287.5 83.216 L 287.5 224.145 L 310.879 224.145 L 310.879 227.443 L 259.579 227.443 L 259.176 224.731 C 259.56 224.493 259.981 224.319 260.422 224.218 L 277.827 224.218 L 282.15 224.218 C 283.03 220.92 283.323 86.954 282.59 78.123 L 282.59 78.123 L 282.59 78.123 L 282.59 78.123 L 282.59 78.123 L 282.59 78.123 L 282.59 78.123 L 282.59 78.123 L 282.59 78.123 L 282.59 78.123 L 282.59 78.123 L 282.59 78.123 L 282.59 78.123 L 282.59 78.123 L 282.59 78.123 L 282.59 78.123 L 282.59 78.123 L 282.59 78.123 L 282.59 78.123 L 282.59 78.123 L 282.59 78.123 L 282.59 78.123 L 282.59 78.123 L 282.59 78.123 L 282.59 78.123 L 282.59 78.123 L 282.59 78.123 L 282.59 78.123 Z  M 79.992 609.995 L 79.992 607.136 C 79.992 607.136 80.248 606.77 80.358 606.77 L 103.15 606.367 C 103.736 603.069 103.919 466.538 103.333 460.601 L 81.64 460.601 C 79.625 458.513 79.625 458.513 81.091 456.277 L 149.906 456.277 C 150.777 457.601 150.454 459.375 149.173 460.308 L 127.187 460.308 C 126.454 463.716 126.198 521.429 126.821 528.757 C 129.972 529.344 190.983 529.527 196.846 528.757 L 196.846 460.381 L 173.614 460.381 L 173.174 456.717 C 173.581 456.464 174.027 456.278 174.493 456.167 L 242.722 456.167 L 243.052 460.308 C 235.064 460.564 227.369 460.308 219.417 460.308 L 219.417 606.293 L 242.796 606.293 L 242.796 609.591 L 173.687 609.591 C 173.502 609.143 173.366 608.676 173.284 608.199 C 173.303 607.595 173.376 606.994 173.504 606.403 L 196.443 606.403 C 197.212 603.069 197.505 542.498 196.846 533.813 C 193.695 533.19 133.087 533.007 126.785 533.593 L 126.785 606.183 L 149.943 606.183 L 150.419 609.151 C 150.035 609.398 149.614 609.583 149.173 609.701 C 147.891 609.701 146.645 609.701 145.509 609.701 L 79.992 609.701 L 79.992 609.995 L 79.992 609.995 L 79.992 609.995 L 79.992 609.995 L 79.992 609.995 L 79.992 609.995 L 79.992 609.995 L 79.992 609.995 L 79.992 609.995 L 79.992 609.995 L 79.992 609.995 L 79.992 609.995 L 79.992 609.995 L 79.992 609.995 L 79.992 609.995 L 79.992 609.995 L 79.992 609.995 L 79.992 609.995 L 79.992 609.995 L 79.992 609.995 L 79.992 609.995 L 79.992 609.995 L 79.992 609.995 L 79.992 609.995 L 79.992 609.995 L 79.992 609.995 L 79.992 609.995 Z  M 780.824 335.099 C 781.263 335.099 781.483 335.465 781.74 335.465 C 789.905 335.747 798.079 335.527 806.217 334.806 C 813.135 334.188 819.238 330.027 822.34 323.813 C 825.491 317.62 825.601 310.914 826.481 304.355 C 826.539 301.568 826.318 298.781 825.821 296.037 C 825.627 292.837 824.985 289.679 823.916 286.656 C 822.354 281.202 818.847 276.508 814.059 273.465 C 809.629 271.088 804.718 269.747 799.695 269.544 C 794.198 269.105 788.702 269.544 783.132 269.544 C 782.325 269.692 781.547 269.964 780.824 270.35 L 780.824 335.099 L 780.824 335.099 L 780.824 335.099 L 780.824 335.099 L 780.824 335.099 L 780.824 335.099 L 780.824 335.099 L 780.824 335.099 L 780.824 335.099 L 780.824 335.099 L 780.824 335.099 L 780.824 335.099 L 780.824 335.099 L 780.824 335.099 L 780.824 335.099 L 780.824 335.099 L 780.824 335.099 L 780.824 335.099 L 780.824 335.099 L 780.824 335.099 L 780.824 335.099 L 780.824 335.099 L 780.824 335.099 L 780.824 335.099 L 780.824 335.099 L 780.824 335.099 L 780.824 335.099 L 780.824 335.099 Z  M 291.384 533.631 C 291.086 543.174 291.613 552.724 292.96 562.176 C 293.801 568.409 295.25 574.546 297.284 580.497 C 300.948 589.951 305.895 598.342 315.056 603.655 C 320.074 606.704 325.731 608.547 331.582 609.042 C 338.735 609.783 345.956 609.573 353.054 608.419 C 360.522 607.138 367.452 603.698 372.988 598.525 C 378.038 593.479 381.807 587.297 383.981 580.497 C 386.026 574.737 387.475 568.781 388.305 562.725 C 389.167 557.216 389.706 551.661 389.917 546.089 C 389.574 542.592 389.822 539.061 390.65 535.646 C 390.883 534.547 390.883 533.411 390.65 532.311 C 390.65 531.066 390.137 529.856 390.064 528.647 C 390.103 523.166 389.858 517.687 389.331 512.231 C 388.635 507.871 388.268 503.4 387.535 499.003 C 385.928 489.191 381.995 479.906 376.066 471.924 C 372.113 466.568 366.745 462.418 360.566 459.942 C 354.479 457.48 347.968 456.234 341.402 456.277 C 338.361 456.277 335.283 456.754 332.241 457.083 C 326.531 457.54 321.021 459.389 316.192 462.47 C 311.823 465.258 307.978 468.793 304.832 472.913 C 300.714 478.562 297.67 484.922 295.855 491.674 C 294.57 496.361 293.639 501.138 293.07 505.965 C 292.108 512.321 291.593 518.737 291.531 525.166 C 291.421 527.988 291.384 530.809 291.384 533.63 L 291.384 533.631 L 291.384 533.631 L 291.384 533.631 L 291.384 533.631 L 291.384 533.631 L 291.384 533.631 L 291.384 533.631 L 291.384 533.631 L 291.384 533.631 L 291.384 533.631 L 291.384 533.631 L 291.384 533.631 L 291.384 533.631 L 291.384 533.631 L 291.384 533.631 L 291.384 533.631 L 291.384 533.631 L 291.384 533.631 L 291.384 533.631 L 291.384 533.631 L 291.384 533.631 L 291.384 533.631 L 291.384 533.631 L 291.384 533.631 L 291.384 533.631 L 291.384 533.631 Z  M 585.444 460.455 L 585.444 456.204 L 708.82 456.204 C 708.197 469.285 708.82 481.671 708.417 493.983 C 705.815 494.203 705.889 494.166 705.046 492.151 C 703.067 487.387 701.382 482.477 698.927 477.933 C 693.734 467.727 683.47 461.084 672.031 460.528 C 659.169 460.528 646.381 460.528 633.373 460.528 L 631.724 460.528 C 631.064 463.716 630.807 518.021 631.43 525.643 C 632.456 525.643 633.556 525.643 634.655 525.643 C 639.052 525.643 643.449 525.643 647.81 525.643 C 650.861 525.461 653.89 525.007 656.861 524.287 C 663.479 522.392 668.715 517.32 670.821 510.766 C 672.611 506.101 674.104 501.328 675.292 496.475 C 675.768 494.826 676.501 494.02 678.26 494.423 C 678.919 497.574 679.176 553.344 678.553 561.113 C 677.624 561.726 676.374 561.471 675.761 560.542 C 675.583 560.274 675.473 559.967 675.439 559.647 C 674.486 556.166 673.753 552.648 672.8 549.167 C 671.586 544.25 669.14 539.723 665.692 536.012 C 662.361 532.595 657.968 530.411 653.233 529.82 C 645.904 528.684 638.906 529.82 631.797 529.087 C 631.064 532.422 630.844 598.709 631.504 606.257 C 632.566 606.257 633.629 606.257 634.728 606.257 C 646.894 606.257 659.059 606.257 671.371 606.257 C 680.533 606.354 689.417 603.11 696.362 597.133 C 704.211 590.324 709.701 581.204 712.045 571.08 C 712.778 568.259 713.437 565.437 714.207 562.359 L 716.955 562.359 L 716.955 609.555 L 585.48 609.555 L 585.48 606.404 L 608.272 606.404 L 608.748 605.854 C 608.84 605.75 608.903 605.624 608.932 605.488 C 608.932 604.938 608.932 604.352 608.932 603.803 C 608.932 556.167 608.932 508.531 608.932 460.492 C 604.985 460.122 601.019 460.025 597.059 460.199 C 593.432 460.381 589.621 460.455 585.444 460.455 L 585.444 460.455 L 585.444 460.455 L 585.444 460.455 L 585.444 460.455 L 585.444 460.455 L 585.444 460.455 L 585.444 460.455 L 585.444 460.455 L 585.444 460.455 L 585.444 460.455 L 585.444 460.455 L 585.444 460.455 L 585.444 460.455 L 585.444 460.455 L 585.444 460.455 L 585.444 460.455 L 585.444 460.455 L 585.444 460.455 L 585.444 460.455 L 585.444 460.455 L 585.444 460.455 L 585.444 460.455 L 585.444 460.455 Z  M 531.688 266.174 L 531.688 269.838 L 511.058 269.838 L 475.551 328.833 L 528.977 416.227 L 547.298 416.227 L 546.382 419.451 L 482.037 419.451 L 481.598 416.74 C 482.111 416.519 482.477 416.19 482.843 416.19 L 502.008 416.19 L 460.674 348.437 C 446.97 371.119 433.742 393.361 420.367 416.116 L 440.851 416.116 L 440.851 419.414 L 395.23 419.414 C 395.133 418.832 395.072 418.245 395.047 417.656 C 395.114 417.194 395.224 416.74 395.377 416.3 L 415.128 416.3 C 420.477 408.788 424.691 400.58 429.785 392.812 C 434.878 385.043 438.982 377.165 443.672 369.36 C 448.362 361.555 453.236 353.603 458.329 345.359 C 458.039 344.093 457.609 342.865 457.047 341.695 C 449.718 329.529 442.023 317.474 434.622 305.308 C 428.466 295.158 422.493 284.898 416.3 274.748 C 415.311 273.099 413.992 271.597 412.636 269.984 L 395.267 269.984 L 395.047 265.99 L 459.429 265.99 L 459.429 270.021 L 439.715 270.021 C 450.708 288.672 461.7 306.444 473.023 324.985 C 484.419 306.664 495.375 288.562 506.515 270.021 L 487.057 270.021 L 486.764 266.357 C 487.68 265.698 523.554 265.478 531.688 266.174 L 531.688 266.174 L 531.688 266.174 L 531.688 266.174 L 531.688 266.174 L 531.688 266.174 L 531.688 266.174 L 531.688 266.174 L 531.688 266.174 L 531.688 266.174 L 531.688 266.174 L 531.688 266.174 L 531.688 266.174 L 531.688 266.174 L 531.688 266.174 L 531.688 266.174 L 531.688 266.174 L 531.688 266.174 L 531.688 266.174 L 531.688 266.174 L 531.688 266.174 L 531.688 266.174 L 531.688 266.174 Z  M 79.259 181.053 L 81.86 181.053 C 83.179 185.596 84.279 190.03 85.818 194.317 C 88.124 201.059 91.569 207.355 96.005 212.932 C 101.708 219.882 109.719 224.55 118.577 226.086 C 121.194 226.515 123.839 226.761 126.491 226.819 C 128.69 226.819 130.998 226.233 133.16 227.479 C 133.563 227.699 134.26 227.479 134.773 227.479 C 136.275 227.296 137.777 227.003 139.316 226.893 C 151.922 226.013 161.778 220.81 167.751 209.194 C 170.843 203.191 172.117 196.417 171.416 189.7 C 170.934 184.528 168.946 179.611 165.699 175.556 C 161.455 170.342 155.904 166.347 149.613 163.977 C 141.991 160.899 133.966 159.104 126.235 156.465 C 121.764 154.926 117.184 153.753 112.75 152.178 C 105.496 149.628 98.749 145.82 92.817 140.928 C 89.154 137.626 86.403 133.437 84.828 128.763 C 83.475 125.521 82.886 122.01 83.106 118.503 C 83.197 117.088 83.197 115.668 83.106 114.252 C 82.736 105.355 85.455 96.603 90.801 89.482 C 95.729 82.574 102.532 77.221 110.405 74.055 C 119.09 70.76 128.444 69.616 137.667 70.721 C 142.928 71.347 148.045 72.858 152.801 75.191 C 155.439 76.363 158.297 77.096 160.972 78.305 C 163.147 79.228 165.629 79.079 167.678 77.902 L 170.609 73.872 L 173.944 74.678 L 173.944 113.996 L 170.279 113.556 C 169.496 106.616 167.248 99.921 163.684 93.915 C 158.719 84.448 149.899 77.592 139.5 75.117 C 134.628 73.742 129.493 73.591 124.549 74.678 C 121.251 75.557 117.807 76.144 114.436 77.06 C 110.323 78.2 106.55 80.326 103.443 83.252 C 99.738 86.51 97.085 90.795 95.821 95.564 C 93.648 103.37 95.203 111.742 100.035 118.246 C 102.814 121.792 106.444 124.577 110.588 126.344 C 115.777 128.714 121.099 130.782 126.528 132.536 C 133.856 135.101 141.588 137.373 149.136 139.865 C 152.581 140.928 156.062 141.844 159.506 143.016 C 166.267 145.092 172.511 148.576 177.828 153.239 C 182.822 157.631 186.267 163.516 187.648 170.022 C 193.028 194.176 179.719 218.586 156.502 227.148 C 151.933 228.795 147.223 230.022 142.431 230.812 C 136.154 231.679 129.799 231.839 123.486 231.289 C 117.8 231 112.179 229.94 106.777 228.137 C 102.71 226.745 98.606 225.426 94.429 224.473 C 91.776 224.017 89.094 223.748 86.404 223.667 L 82.41 228.027 L 79.588 228.027 C 78.67 212.385 78.56 196.706 79.259 181.053 L 79.259 181.053 L 79.259 181.053 L 79.259 181.053 L 79.259 181.053 L 79.259 181.053 L 79.259 181.053 L 79.259 181.053 L 79.259 181.053 L 79.259 181.053 L 79.259 181.053 L 79.259 181.053 L 79.259 181.053 L 79.259 181.053 L 79.259 181.053 L 79.259 181.053 L 79.259 181.053 L 79.259 181.053 L 79.259 181.053 L 79.259 181.053 L 79.259 181.053 L 79.259 181.053 Z  M 982.03 461.371 C 986.793 459.722 986.793 459.722 989.358 456.277 L 992.253 456.277 L 992.253 495.669 L 989.725 496.072 C 989.432 495.705 989.139 495.485 989.139 495.265 C 987.481 484.188 982.349 473.923 974.481 465.951 C 969.298 461.223 962.836 458.127 955.904 457.047 C 953.295 456.55 950.644 456.317 947.989 456.351 C 939.411 456.465 931.074 459.202 924.097 464.192 C 918.048 468.493 914.414 475.422 914.314 482.843 C 913.879 486.343 914.153 489.895 915.12 493.287 C 916.899 497.869 919.903 501.875 923.804 504.866 C 929.784 509.003 936.427 512.088 943.445 513.99 C 951.726 516.812 960.117 519.34 968.435 522.015 L 978.365 525.092 C 983.355 526.542 988.054 528.848 992.253 531.908 C 1000.004 537.127 1005.296 545.276 1006.91 554.48 C 1009.168 568.001 1005.748 581.855 997.457 592.772 C 993.06 598.615 987.397 603.388 980.894 606.733 C 974.749 610.049 968.014 612.127 961.07 612.852 C 956.601 613.287 952.112 613.495 947.622 613.476 C 940.645 613.425 933.707 612.439 926.992 610.544 C 923.459 609.765 919.991 608.711 916.622 607.393 C 912.679 605.935 908.445 605.445 904.273 605.964 C 902.624 607.759 902.038 611.057 898.52 609.921 C 897.824 606.88 897.568 571.995 898.19 563.677 C 899.106 563.045 900.362 563.275 900.994 564.191 C 901.189 564.474 901.309 564.802 901.342 565.143 C 902.038 567.525 902.478 570.017 903.137 572.472 C 905.519 582.452 910.588 591.589 917.794 598.891 C 923.128 603.886 929.799 607.222 936.995 608.492 C 944.956 609.637 953.023 609.846 961.033 609.115 C 967.062 608.638 972.796 606.309 977.449 602.446 C 984.482 596.825 988.958 588.611 989.871 579.654 C 990.382 574.845 989.971 569.982 988.662 565.327 C 988.029 563.028 986.89 560.899 985.327 559.098 C 981.424 553.929 976.265 549.842 970.34 547.225 C 960.374 542.865 949.747 540.52 939.45 537.185 C 933.94 535.565 928.572 533.494 923.401 530.992 C 918.21 528.483 913.497 525.085 909.477 520.952 C 905.463 516.469 902.908 510.872 902.148 504.903 C 901.583 502.168 901.349 499.375 901.452 496.585 C 901.787 475.036 917.604 456.866 938.901 453.566 C 944.739 452.627 950.672 452.418 956.563 452.943 C 961.264 453.411 965.857 454.649 970.157 456.607 C 974.151 458.183 978.109 459.905 982.03 461.371 L 982.03 461.371 L 982.03 461.371 L 982.03 461.371 L 982.03 461.371 L 982.03 461.371 L 982.03 461.371 L 982.03 461.371 L 982.03 461.371 L 982.03 461.371 L 982.03 461.371 L 982.03 461.371 L 982.03 461.371 L 982.03 461.371 L 982.03 461.371 L 982.03 461.371 L 982.03 461.371 L 982.03 461.371 L 982.03 461.371 L 982.03 461.371 L 982.03 461.371 Z  M 569.064 456.387 L 569.064 495.925 L 566.059 495.925 C 564.541 490.26 562.403 484.779 559.684 479.583 C 556.229 472.455 550.489 466.69 543.377 463.203 C 539.695 461.507 535.704 460.584 531.652 460.492 C 526.155 460.492 520.659 460.492 515.016 460.492 L 515.016 606.257 C 518.886 606.666 522.783 606.764 526.668 606.55 C 530.333 606.55 534.29 606.55 538.357 606.55 L 538.577 609.335 C 537.698 610.215 477.054 610.471 469.176 609.738 L 469.176 606.624 L 492.517 606.624 L 492.517 460.492 C 485.848 460.492 479.326 460.015 472.913 460.492 C 467.187 461.017 461.762 463.294 457.377 467.014 C 451.668 472.195 447.24 478.629 444.442 485.812 C 443.086 488.817 442.206 492.078 440.997 495.596 L 438.102 496.109 C 437.85 495.688 437.665 495.231 437.553 494.753 C 437.553 482.857 437.553 470.96 437.553 459.063 C 437.661 458.092 437.87 457.134 438.176 456.205 L 569.064 456.387 L 569.064 456.387 L 569.064 456.387 L 569.064 456.387 L 569.064 456.387 L 569.064 456.387 L 569.064 456.387 L 569.064 456.387 L 569.064 456.387 L 569.064 456.387 L 569.064 456.387 L 569.064 456.387 L 569.064 456.387 L 569.064 456.387 L 569.064 456.387 L 569.064 456.387 L 569.064 456.387 L 569.064 456.387 L 569.064 456.387 L 569.064 456.387 Z  M 918.894 78.16 L 895.955 78.16 C 894.49 76.107 894.49 76.107 895.736 74.092 L 964.917 74.092 C 964.917 74.935 964.917 75.595 964.917 76.291 C 964.875 76.893 964.802 77.492 964.697 78.086 L 941.942 78.086 L 941.429 78.636 C 941.401 78.756 941.401 78.882 941.429 79.002 C 941.429 79.552 941.429 80.138 941.429 80.688 C 941.429 128.323 941.429 175.959 941.429 223.998 C 942.528 223.998 943.444 224.254 944.397 224.254 C 956.416 224.254 968.471 224.584 980.49 224.254 C 988.329 224.339 996.005 222.011 1002.476 217.586 C 1008.139 213.377 1012.774 207.94 1016.033 201.683 C 1019.578 194.966 1022.25 187.823 1023.985 180.43 L 1026.99 180.43 L 1026.99 227.626 L 894.819 227.626 L 894.819 224.951 L 895.038 224.731 C 895.038 224.731 895.258 224.511 895.368 224.511 L 918.636 224.511 C 919.334 220.883 919.737 88.016 918.894 78.16 L 918.894 78.16 L 918.894 78.16 L 918.894 78.16 L 918.894 78.16 L 918.894 78.16 L 918.894 78.16 L 918.894 78.16 L 918.894 78.16 L 918.894 78.16 L 918.894 78.16 L 918.894 78.16 L 918.894 78.16 L 918.894 78.16 L 918.894 78.16 L 918.894 78.16 L 918.894 78.16 L 918.894 78.16 L 918.894 78.16 Z  M 785.257 606.513 L 821.167 606.513 C 827.737 606.467 834.243 605.225 840.368 602.849 C 843.218 601.682 845.845 600.033 848.136 597.976 C 856.208 590.718 862.096 581.353 865.139 570.933 C 866.055 568.185 866.788 565.363 867.63 562.468 L 870.635 562.468 L 870.635 609.298 L 870.342 609.591 C 870.237 609.681 870.111 609.745 869.976 609.775 L 868.693 609.775 L 739.38 609.775 L 739.051 607.063 C 739.307 606.77 739.417 606.587 739.49 606.587 L 762.282 606.184 C 762.905 602.959 763.125 467.234 762.502 460.308 L 739.234 460.308 L 739.234 456.167 L 808.452 456.167 L 808.819 459.832 C 808.408 460.071 807.963 460.244 807.499 460.345 L 785.514 460.345 C 784.817 463.789 784.561 598.708 785.257 606.513 L 785.257 606.513 L 785.257 606.513 L 785.257 606.513 L 785.257 606.513 L 785.257 606.513 L 785.257 606.513 L 785.257 606.513 L 785.257 606.513 L 785.257 606.513 L 785.257 606.513 L 785.257 606.513 L 785.257 606.513 L 785.257 606.513 L 785.257 606.513 L 785.257 606.513 L 785.257 606.513 L 785.257 606.513 Z  M 829.522 180.21 L 832.014 180.21 C 832.673 183.361 832.893 220.737 832.307 227.223 C 829.156 227.846 707.391 228.029 701.052 227.406 L 701.052 224.291 L 724.43 224.291 L 724.43 78.453 C 720.582 78.085 716.712 78 712.851 78.196 C 709.187 78.196 705.229 78.196 701.125 78.196 L 700.869 74.532 C 701.821 73.579 762.759 73.36 770.49 74.056 L 770.49 78.013 L 747.112 78.013 L 747.112 223.815 C 748.01 223.963 748.915 224.061 749.824 224.108 C 761.843 224.108 773.898 224.401 785.917 224.108 C 793.752 224.167 801.42 221.841 807.902 217.439 C 813.307 213.447 817.773 208.318 820.984 202.416 C 824.82 195.433 827.692 187.963 829.522 180.21 L 829.522 180.21 L 829.522 180.21 L 829.522 180.21 L 829.522 180.21 L 829.522 180.21 L 829.522 180.21 L 829.522 180.21 L 829.522 180.21 L 829.522 180.21 L 829.522 180.21 L 829.522 180.21 L 829.522 180.21 L 829.522 180.21 L 829.522 180.21 L 829.522 180.21 L 829.522 180.21 Z  M 141.771 265.881 L 141.771 270.058 L 118.32 270.058 L 118.32 416.19 L 122.204 416.19 C 133.38 416.19 144.556 416.19 155.732 416.19 C 160.601 416.12 165.436 415.367 170.096 413.955 C 178.07 411.499 184.921 406.309 189.444 399.298 C 194.588 391.647 198.312 383.133 200.437 374.161 C 200.876 372.476 201.683 371.742 203.881 372.366 C 203.881 387.939 203.881 403.585 203.881 419.452 L 72.406 419.452 L 72.406 416.264 L 95.785 416.264 L 95.785 270.315 C 92.12 269.912 88.09 270.315 84.206 270.315 C 80.321 270.315 76.584 270.315 72.443 270.315 L 72.113 266.431 C 72.7 266.255 73.301 266.133 73.909 266.064 L 141.735 266.064 L 141.771 265.881 L 141.771 265.881 L 141.771 265.881 L 141.771 265.881 L 141.771 265.881 L 141.771 265.881 L 141.771 265.881 L 141.771 265.881 L 141.771 265.881 L 141.771 265.881 L 141.771 265.881 L 141.771 265.881 L 141.771 265.881 L 141.771 265.881 L 141.771 265.881 L 141.771 265.881 Z  M 580.606 161.229 L 557.595 100.438 L 534.656 161.229 L 580.606 161.229 L 580.606 161.229 L 580.606 161.229 L 580.606 161.229 L 580.606 161.229 L 580.606 161.229 L 580.606 161.229 L 580.606 161.229 L 580.606 161.229 L 580.606 161.229 L 580.606 161.229 L 580.606 161.229 L 580.606 161.229 L 580.606 161.229 L 580.606 161.229 L 580.606 161.229 Z  M 901.012 270.095 L 881.188 270.095 L 880.932 266.431 C 881.848 265.515 939.561 265.295 946.889 265.954 L 947.769 268.739 C 947.292 269.948 946.157 269.985 944.984 269.985 L 926.662 269.985 L 968.692 344.004 L 976.02 330.262 C 981.37 320.491 986.72 310.659 992.07 300.765 C 993.865 297.43 995.734 294.059 997.346 290.725 L 1008.339 270.095 L 987.306 270.095 L 987.013 266.43 C 987.966 265.478 1025.744 265.258 1033.549 265.954 L 1033.549 269.838 L 1012.993 269.838 C 1012.551 270.333 1012.147 270.86 1011.784 271.414 C 1008.339 278.01 1004.968 284.606 1001.487 291.165 C 996.601 300.203 991.801 309.229 987.086 318.244 L 974.994 340.853 L 974.773 341.219 C 970.889 345.726 970.816 351.112 970.889 356.682 C 970.889 375.004 970.889 393.325 970.889 411.463 L 970.889 416.007 L 994.487 416.007 L 994.487 419.305 L 925.342 419.305 L 924.939 416.593 C 925.323 416.355 925.744 416.181 926.185 416.08 L 943.59 416.08 L 948.537 416.08 C 948.537 414.724 948.757 413.479 948.757 412.416 C 948.757 394.864 948.757 377.312 948.757 359.76 C 948.729 355.98 947.637 352.285 945.606 349.097 C 942.784 344.26 939.963 339.46 937.178 334.44 C 932.586 326.452 928.005 318.439 923.437 310.402 C 920.469 305.162 917.647 299.849 914.679 294.609 C 911.711 289.368 908.78 284.458 905.885 279.365 C 904.383 276.508 902.771 273.393 901.012 270.095 L 901.012 270.095 L 901.012 270.095 L 901.012 270.095 L 901.012 270.095 L 901.012 270.095 L 901.012 270.095 L 901.012 270.095 L 901.012 270.095 L 901.012 270.095 L 901.012 270.095 L 901.012 270.095 L 901.012 270.095 L 901.012 270.095 Z  M 586.983 270.132 L 563.421 270.132 L 563.421 266.101 L 632.749 266.101 C 632.749 266.907 632.749 267.567 632.749 268.226 C 632.708 268.828 632.635 269.428 632.53 270.022 L 609.261 270.022 C 609.261 271.304 608.968 272.404 608.968 273.466 C 608.968 309.266 608.968 345.103 608.968 380.903 C 608.988 388.875 610.804 396.741 614.282 403.915 C 617.879 411.025 624.463 416.158 632.237 417.912 C 634.822 418.565 637.487 418.848 640.151 418.755 C 643.816 418.755 647.26 419.011 650.778 418.755 C 660.269 417.912 669.099 415.53 676.025 408.201 C 678.539 405.742 680.82 403.056 682.84 400.177 C 686.05 394.798 688.097 388.807 688.85 382.588 C 689.57 376.3 689.79 369.966 689.509 363.644 C 689.509 334.329 689.509 304.759 689.509 275.298 L 689.509 270.241 C 681.595 270.241 673.863 270.241 665.948 270.241 L 665.948 266.21 L 717.248 266.21 L 717.615 269.691 C 717.219 269.942 716.786 270.128 716.332 270.241 L 694.346 270.241 C 693.835 271.749 693.697 273.358 693.943 274.931 C 693.943 308.203 693.943 341.475 693.943 374.747 C 694.188 382.875 692.4 390.936 688.74 398.198 C 686.719 402.366 684.033 406.178 680.789 409.484 C 672.916 416.715 662.942 421.246 652.317 422.419 C 647.028 423.185 641.676 423.418 636.341 423.115 C 626.419 422.938 616.677 420.428 607.906 415.786 C 599.804 411.097 593.616 403.701 590.427 394.9 C 588.009 388.481 586.767 381.679 586.763 374.82 C 586.763 341.695 586.763 308.569 586.763 275.444 C 586.983 273.759 586.983 272.22 586.983 270.132 L 586.983 270.132 L 586.983 270.132 L 586.983 270.132 L 586.983 270.132 L 586.983 270.132 L 586.983 270.132 L 586.983 270.132 L 586.983 270.132 L 586.983 270.132 L 586.983 270.132 L 586.983 270.132 L 586.983 270.132 Z  M 327.184 270.095 L 327.184 266.101 L 378.484 266.101 C 378.887 267.567 379.107 268.886 377.312 270.058 L 355.583 270.058 C 354.869 271.486 354.662 273.114 354.996 274.675 C 354.996 307.947 354.996 341.182 354.996 374.454 C 355.317 382.578 353.525 390.646 349.793 397.869 C 347.641 402.111 344.876 406.013 341.585 409.448 C 335.084 415.664 326.884 419.809 318.024 421.357 C 311.302 422.741 304.432 423.27 297.577 422.933 C 288.228 422.625 279.04 420.418 270.571 416.447 C 261.476 411.86 254.562 403.866 251.334 394.205 C 249.083 387.89 247.942 381.232 247.963 374.528 C 247.963 341.402 247.963 308.277 247.963 275.152 C 247.963 273.613 247.963 272.074 247.963 270.096 C 240.048 270.096 232.353 270.096 224.401 270.096 L 224.401 266.065 L 293.73 266.065 C 293.73 266.871 293.73 267.567 293.73 268.227 C 293.688 268.829 293.615 269.428 293.51 270.022 L 270.242 270.022 C 270.242 271.305 269.948 272.404 269.948 273.466 C 269.948 309.267 269.948 345.103 269.948 380.903 C 269.971 388.481 271.581 395.971 274.675 402.889 C 278.092 410.584 284.96 416.2 293.18 418.022 C 296.047 418.699 298.994 418.982 301.938 418.865 C 307.414 419.236 312.916 418.928 318.317 417.949 C 324.824 416.863 330.88 413.925 335.759 409.484 C 338.899 406.47 341.723 403.143 344.187 399.554 C 347.148 394.508 349.044 388.909 349.756 383.102 C 350.707 373.851 350.952 364.541 350.489 355.253 C 350.489 328.65 350.489 302.048 350.489 275.408 L 350.489 270.315 C 342.977 270.022 335.246 270.241 327.184 270.095 L 327.184 270.095 L 327.184 270.095 L 327.184 270.095 L 327.184 270.095 L 327.184 270.095 L 327.184 270.095 L 327.184 270.095 L 327.184 270.095 L 327.184 270.095 L 327.184 270.095 L 327.184 270.095 Z  M 595.41 773.055 L 591.746 773.055 C 591.539 772.701 591.356 772.334 591.196 771.956 C 587.898 762.942 584.601 753.928 581.339 744.914 C 578.921 738.245 576.613 731.539 574.231 724.87 C 570.689 714.903 567.134 704.948 563.568 695.006 C 563.296 694.431 562.977 693.88 562.615 693.357 C 559.537 692.954 556.202 693.541 552.795 692.991 C 553.161 692.185 553.234 691.745 553.344 691.745 C 564.897 691.233 576.468 691.343 588.009 692.075 C 587.239 692.588 586.763 693.174 586.287 693.174 C 582.915 693.174 579.544 693.174 575.77 693.174 L 598.452 756.97 L 613.109 716.662 L 604.571 693.174 C 601.31 692.918 598.379 693.174 594.531 692.808 C 595.704 691.892 596.07 691.379 596.437 691.379 C 607.039 691.379 617.653 691.379 628.279 691.379 C 628.609 691.379 628.939 691.708 629.672 692.111 C 627.583 693.724 625.458 692.881 623.516 693.028 C 621.574 693.174 619.632 693.028 617.433 693.028 C 619.302 698.561 621.097 703.691 622.783 708.784 C 625.715 717.029 628.793 725.237 631.761 733.481 C 634.472 741.066 637.147 748.688 640.042 756.86 L 663.164 693.101 C 659.096 692.881 655.322 693.101 650.852 692.881 C 651.694 692.001 652.024 691.378 652.354 691.378 C 659.976 691.378 667.634 691.378 675.256 691.378 C 675.476 691.378 675.659 691.708 676.209 692.111 C 675.586 692.477 675.109 692.99 674.596 692.99 C 671.921 692.99 669.21 692.99 666.352 692.99 C 665.399 695.152 664.3 697.241 663.493 699.44 C 660.562 707.538 657.777 715.709 654.846 723.807 C 651.181 734.25 647.114 744.657 643.303 755.137 C 641.398 760.377 639.639 765.654 637.807 770.894 C 637.807 771.407 637.367 771.883 637.037 772.616 L 633.373 772.836 L 614.392 719.96 L 595.41 773.055 L 595.41 773.055 L 595.41 773.055 L 595.41 773.055 L 595.41 773.055 L 595.41 773.055 L 595.41 773.055 L 595.41 773.055 L 595.41 773.055 L 595.41 773.055 L 595.41 773.055 Z  M 353.457 692.001 C 353.883 691.767 354.34 691.594 354.813 691.488 C 366.653 690.938 378.516 691.195 390.32 692.257 C 389.441 692.697 388.964 693.173 388.451 693.21 C 385.923 693.21 383.358 693.21 380.793 693.21 C 379.84 693.21 378.887 693.393 378.228 693.466 L 377.678 694.016 C 377.579 694.121 377.504 694.246 377.458 694.382 C 377.342 694.789 377.268 695.206 377.238 695.628 C 377.238 706.792 377.238 717.956 377.238 729.12 C 389.317 729.853 401.427 729.939 413.515 729.376 L 413.515 693.21 L 407.542 693.21 C 405.664 693.355 403.777 693.355 401.899 693.21 L 401.899 692.257 C 402.397 691.958 402.942 691.747 403.512 691.634 L 436.49 691.634 C 437.151 691.682 437.769 691.984 438.212 692.476 C 434.548 694.199 430.297 692.697 426.23 693.759 C 425.924 694.486 425.714 695.249 425.607 696.031 C 425.607 720.093 425.607 744.155 425.607 768.217 C 425.654 768.651 425.74 769.08 425.864 769.499 C 429.968 770.269 434.182 769.096 438.286 770.892 C 437.772 771.178 437.215 771.376 436.637 771.478 L 403.658 771.478 C 403.009 771.425 402.405 771.123 401.972 770.636 C 405.637 768.987 409.631 770.306 413.332 769.499 C 413.918 766.165 414.028 736.521 413.332 731.757 L 377.788 731.757 C 376.918 744.32 376.796 756.923 377.422 769.499 C 381.489 770.195 385.703 769.279 390.503 770.123 C 389.624 770.855 389.257 771.405 388.891 771.405 C 377.434 771.405 365.965 771.405 354.483 771.405 C 354.153 771.405 353.824 771.075 352.944 770.636 C 353.86 770.196 354.373 769.756 354.923 769.72 C 358.184 769.72 361.445 769.72 364.56 769.72 L 365 769.316 C 365.088 769.224 365.151 769.111 365.183 768.987 C 365.183 768.291 365.183 767.558 365.183 766.862 C 365.183 742.531 365.183 718.2 365.183 693.576 C 361.189 693.136 357.231 693.576 353.384 693.246 L 353.457 692.001 L 353.457 692.001 L 353.457 692.001 L 353.457 692.001 L 353.457 692.001 L 353.457 692.001 L 353.457 692.001 L 353.457 692.001 L 353.457 692.001 L 353.457 692.001 Z  M 968.728 769.611 C 975.555 769.979 982.401 769.697 989.175 768.768 C 994.009 767.812 998.368 765.225 1001.523 761.44 C 1006.625 755.087 1009.611 747.296 1010.061 739.161 C 1010.962 730.908 1010.404 722.56 1008.412 714.5 C 1006.395 705.539 999.899 698.253 991.227 695.226 C 983.925 693.117 976.275 692.494 968.728 693.394 L 968.728 769.611 L 968.728 769.611 L 968.728 769.611 L 968.728 769.611 L 968.728 769.611 L 968.728 769.611 L 968.728 769.611 L 968.728 769.611 L 968.728 769.611 L 968.728 769.611 L 968.728 769.611 Z  M 816.55 727.142 C 817.503 726.629 818.456 726.042 819.482 725.603 C 821.605 724.743 823.205 722.94 823.805 720.729 C 824.731 717.536 825.333 714.259 825.601 710.946 C 825.776 708.469 825.478 705.982 824.721 703.617 C 823.909 699.396 820.949 695.907 816.916 694.42 C 812.123 693.251 807.158 692.953 802.259 693.54 C 801.634 704.761 801.769 716.012 802.662 727.215 L 816.55 727.142 L 816.55 727.142 L 816.55 727.142 L 816.55 727.142 L 816.55 727.142 L 816.55 727.142 L 816.55 727.142 L 816.55 727.142 L 816.55 727.142 Z  M 698.304 733.005 C 698.294 737.691 698.527 742.376 699 747.039 C 699.841 752.414 701.68 757.584 704.423 762.282 C 706.236 765.168 708.899 767.421 712.045 768.731 C 717.989 771.069 724.496 771.579 730.733 770.197 C 737.798 768.882 743.577 763.806 745.793 756.969 C 747.821 751.636 748.936 746 749.091 740.297 C 749.627 733.127 749.455 725.922 748.578 718.787 C 748.004 714.806 747.085 710.883 745.829 707.062 C 743.919 701.088 739.584 696.194 733.884 693.577 C 730.293 691.988 726.369 691.296 722.451 691.561 C 713.493 691.322 705.364 696.776 702.188 705.156 C 699.727 711.083 698.421 717.426 698.34 723.843 C 698.304 726.555 698.34 729.23 698.34 733.005 L 698.304 733.005 L 698.304 733.005 L 698.304 733.005 L 698.304 733.005 L 698.304 733.005 L 698.304 733.005 L 698.304 733.005 L 698.304 733.005 L 698.304 733.005 Z  M 88.273 732.785 C 88.566 736.925 88.273 741.945 88.969 747.002 C 89.816 752.382 91.641 757.561 94.355 762.282 C 96.142 765.181 98.777 767.458 101.904 768.805 C 107.904 770.992 114.371 771.573 120.665 770.49 C 127.632 768.882 133.305 763.844 135.725 757.115 C 137.886 750.941 139.024 744.456 139.096 737.915 C 139.421 731.742 139.238 725.553 138.547 719.41 C 138.023 715.143 137.053 710.942 135.652 706.878 C 133.771 701.031 129.476 696.269 123.853 693.796 C 118.689 691.62 112.968 691.133 107.51 692.404 C 100.339 693.711 94.405 698.736 91.937 705.595 C 89.478 711.53 88.232 717.896 88.273 724.32 C 88.383 726.702 88.383 729.267 88.383 732.528 L 88.273 732.785 L 88.273 732.785 L 88.273 732.785 L 88.273 732.785 L 88.273 732.785 L 88.273 732.785 L 88.273 732.785 Z  M 516.079 746.856 L 517.984 746.856 L 517.984 771.406 L 483.21 771.406 C 471.704 771.406 460.198 771.406 448.693 770.893 C 450.378 768.988 452.357 769.794 454.409 769.684 C 456.461 769.575 458.623 769.684 460.638 769.684 L 461.041 769.208 C 461.071 769.087 461.071 768.962 461.041 768.841 C 461.041 744.413 461.041 720.07 461.041 695.812 C 461.041 695.116 461.041 694.42 461.041 693.577 C 456.864 692.771 452.613 693.906 447.63 692.697 C 448.364 692.236 449.151 691.867 449.975 691.598 C 451.11 691.541 452.248 691.541 453.383 691.598 L 513.441 691.598 C 513.918 694.812 514.041 698.068 513.807 701.308 C 513.807 704.423 513.807 707.501 513.807 710.725 L 511.938 711.312 L 510.436 708.38 C 508.897 705.412 507.578 702.297 505.819 699.476 C 503.712 696.576 500.478 694.699 496.915 694.309 C 489.076 693.196 481.146 692.876 473.243 693.356 L 473.243 727.104 C 477.234 727.6 481.271 727.6 485.262 727.104 C 489.175 726.216 492.293 723.266 493.397 719.409 L 496.475 710.578 C 497.135 711.641 497.611 712.007 497.611 712.41 C 497.611 723.599 497.611 734.775 497.611 745.939 C 497.611 746.195 497.391 746.415 497.061 747.038 C 496.499 746.541 496.017 745.96 495.632 745.316 C 495.051 743.912 494.62 742.451 494.35 740.956 C 493.779 736.24 490.606 732.246 486.142 730.623 C 485.79 730.458 485.448 730.274 485.116 730.073 L 473.61 730.073 C 472.849 743.325 472.764 756.606 473.353 769.867 L 478.703 769.867 C 482.807 769.867 486.911 769.867 491.015 769.867 C 493.949 769.819 496.871 769.475 499.736 768.841 C 504.084 767.522 507.823 764.705 510.289 760.889 C 512.672 757.932 514.216 754.388 514.76 750.629 C 515.049 749.324 515.492 748.057 516.079 746.856 L 516.079 746.856 L 516.079 746.856 L 516.079 746.856 L 516.079 746.856 Z  M 216.193 748.797 C 213.921 746.416 214.141 743.777 213.408 741.469 C 212.453 736.995 209.207 733.359 204.87 731.905 C 203.794 731.622 202.685 731.487 201.572 731.502 C 198.604 731.502 195.636 731.502 192.742 731.502 C 192.028 744.181 191.955 756.888 192.522 769.574 C 196.552 769.83 200.73 769.574 204.797 769.758 L 204.797 770.71 C 204.317 771.026 203.783 771.249 203.221 771.37 L 169.253 771.37 C 168.591 771.326 167.972 771.023 167.531 770.527 C 171.525 768.951 175.739 770.161 179.953 769.391 L 179.953 693.504 C 175.776 692.661 171.562 693.98 167.495 692.001 C 168.318 691.748 169.165 691.576 170.023 691.488 L 232.829 691.488 C 232.829 698.048 232.829 704.35 232.829 710.799 L 230.814 711.166 C 230.337 710.139 229.934 709.113 229.421 708.161 C 228.041 705.117 226.462 702.167 224.694 699.33 C 222.536 696.493 219.327 694.644 215.79 694.2 C 208.39 693.272 200.924 692.978 193.474 693.321 C 193.194 693.297 192.912 693.297 192.632 693.321 C 191.836 704.969 191.726 716.654 192.302 728.315 C 197.174 729.21 202.187 728.984 206.959 727.655 C 210.229 725.325 212.495 721.842 213.298 717.908 C 213.934 715.827 214.717 713.794 215.643 711.825 C 216.23 713.107 216.596 713.547 216.596 713.987 C 216.596 725.028 216.596 736.021 216.596 746.965 C 216.546 747.592 216.411 748.208 216.193 748.797 L 216.193 748.797 L 216.193 748.797 L 216.193 748.797 Z  M 340.303 712.704 L 338.067 707.061 C 336.758 703.659 334.777 700.556 332.241 697.937 C 329.848 695.531 326.619 694.14 323.227 694.053 C 320.185 693.833 317.144 693.357 314.139 693.027 C 313.26 696.471 312.967 759.167 313.7 769.464 C 317.767 769.94 321.944 769.464 326.964 769.903 C 325.865 770.783 325.499 771.296 325.132 771.332 C 313.382 771.332 301.632 771.332 289.882 771.332 C 289.552 771.332 289.222 770.966 288.453 770.526 C 290.651 769.024 292.74 769.794 294.682 769.684 C 296.624 769.574 298.896 769.684 300.985 769.684 C 301.644 766.422 301.864 700.062 301.241 693.393 C 298.923 693.143 296.578 693.304 294.316 693.87 C 292.664 694.119 291.001 694.278 289.332 694.346 C 285.033 695.402 281.408 698.278 279.402 702.224 C 277.79 705.156 276.654 708.307 275.298 711.385 C 275.115 711.825 274.932 712.301 274.418 713.62 C 273.441 710.043 273.143 706.315 273.539 702.628 C 273.539 698.963 273.539 695.592 273.539 692.111 C 276.91 691.378 332.937 691.122 341.035 691.745 C 341.873 698.727 341.626 705.798 340.303 712.704 L 340.303 712.704 L 340.303 712.704 Z  M 899.51 692.221 C 895.552 693.797 891.338 692.514 887.124 693.357 L 887.124 769.171 C 888.022 769.318 888.927 769.416 889.836 769.464 C 894.783 769.464 899.766 769.684 904.713 769.464 C 907.891 769.209 911.042 768.682 914.13 767.888 C 918.838 766.596 922.811 763.43 925.123 759.131 C 927.104 755.937 928.598 752.467 929.557 748.834 C 929.887 747.661 930.217 746.709 931.682 746.818 C 932.329 754.963 932.39 763.143 931.865 771.296 C 926.149 771.296 920.396 771.296 914.643 771.296 L 863.343 771.296 L 863.343 770.416 C 863.82 770.123 864.296 769.574 864.809 769.574 C 868.18 769.574 871.551 769.574 875.106 769.574 L 875.106 693.54 C 871.441 692.44 867.301 693.979 863.38 692.66 C 863.636 692.111 863.746 691.708 863.856 691.671 C 875.74 691.094 887.649 691.278 899.51 692.221 L 899.51 692.221 Z  M 758.508 270.205 L 735.606 270.205 C 733.701 268.262 733.701 268.262 735.24 265.881 L 790.644 265.881 C 793.685 265.881 796.69 265.881 799.731 265.881 C 802.772 265.881 805.96 265.881 809.075 265.881 C 813.807 266.109 818.513 266.722 823.146 267.713 C 828.706 269.238 833.812 272.093 838.023 276.031 C 843.218 280.184 847.048 285.801 849.016 292.154 C 852.333 302.199 850.318 313.242 843.666 321.468 C 838.227 328.092 830.758 332.74 822.413 334.696 C 820.41 335.154 818.449 335.779 816.55 336.565 C 821.549 337.475 826.455 338.836 831.207 340.632 C 838.845 343.404 845.446 348.457 850.115 355.106 C 852.045 358.164 853.295 361.6 853.779 365.183 C 854.952 371.925 855.209 378.778 855.722 385.63 C 856.235 392.482 855.722 400.287 858.91 406.992 C 859.975 409.415 861.199 411.766 862.574 414.028 C 865.441 416.922 869.699 417.943 873.567 416.666 C 876.168 415.75 878.66 414.468 881.665 413.002 L 883.79 414.944 C 883.57 415.457 883.534 415.823 883.35 415.934 C 876.109 420.884 867.124 422.572 858.58 420.587 C 857.172 420.581 855.765 420.496 854.366 420.331 C 849.865 419.224 845.686 417.078 842.164 414.065 C 838.697 410.542 836.362 406.063 835.458 401.203 C 834.414 396.376 833.74 391.476 833.443 386.546 C 833.186 382.882 833.223 379.218 832.673 375.553 C 832.266 369.582 831.458 363.644 830.255 357.782 C 828.256 349.114 821.699 342.221 813.143 339.79 C 812.613 339.637 812.074 339.514 811.53 339.424 C 805.116 338.608 798.644 338.326 792.183 338.581 L 781.703 338.581 L 781.263 339.021 C 781.169 339.123 781.105 339.25 781.08 339.387 C 781.08 340.376 781.08 341.366 781.08 342.355 C 781.08 366.686 781.08 391.017 781.08 415.641 L 804.641 415.641 L 804.641 418.976 L 735.386 418.976 L 734.067 416.484 C 734.763 416.117 735.13 415.824 735.496 415.788 L 753.341 415.788 L 758.252 415.788 L 758.691 415.348 C 758.722 415.228 758.722 415.102 758.691 414.982 C 758.691 367.688 758.691 320.394 758.691 273.1 C 758.508 272.587 758.508 271.597 758.508 270.205 L 758.508 270.205 L 758.508 270.205 L 758.508 270.205 L 758.508 270.205 L 758.508 270.205 L 758.508 270.205 L 758.508 270.205 L 758.508 270.205 L 758.508 270.205 L 758.508 270.205 L 758.508 270.205 L 758.508 270.205 L 758.508 270.205 L 758.508 270.205 L 758.508 270.205 L 758.508 270.205 L 758.508 270.205 L 758.508 270.205 L 758.508 270.205 L 758.508 270.205 L 758.508 270.205 L 758.508 270.205 L 758.508 270.205 L 758.508 270.205 L 758.508 270.205 L 758.508 270.205 Z  M 415.457 532.568 C 415.457 533.704 415.457 534.84 415.457 535.976 C 415.429 546.747 412.921 557.367 408.129 567.013 C 405.574 572.627 402.416 577.947 398.711 582.879 C 394.459 588.677 389.371 593.813 383.614 598.122 C 376.752 603.439 369.014 607.519 360.749 610.178 C 356.89 611.303 352.961 612.173 348.987 612.78 C 345.355 613.38 341.667 613.565 337.994 613.329 C 328.923 613.065 320.003 610.932 311.794 607.063 C 307.478 605.051 303.336 602.685 299.409 599.991 C 293.79 595.795 288.664 590.976 284.129 585.627 C 280.537 581.334 277.44 576.651 274.895 571.666 C 271.639 565.349 269.177 558.654 267.566 551.732 C 266.337 545.407 265.736 538.975 265.771 532.531 C 265.898 512.015 273.915 492.333 288.16 477.567 C 293.143 472.415 298.63 467.775 304.539 463.716 C 311.735 459.173 319.617 455.82 327.88 453.786 C 334.622 452.147 341.621 451.861 348.474 452.943 C 361.011 454.455 372.884 459.414 382.771 467.271 C 385.826 469.532 388.739 471.979 391.492 474.599 C 395.456 478.563 399.005 482.922 402.082 487.608 C 407.999 496.448 412.177 506.335 414.394 516.739 C 415.121 522.013 415.573 527.321 415.75 532.642 L 415.457 532.568 L 415.457 532.568 L 415.457 532.568 L 415.457 532.568 L 415.457 532.568 L 415.457 532.568 L 415.457 532.568 L 415.457 532.568 L 415.457 532.568 L 415.457 532.568 L 415.457 532.568 L 415.457 532.568 L 415.457 532.568 L 415.457 532.568 L 415.457 532.568 L 415.457 532.568 L 415.457 532.568 L 415.457 532.568 L 415.457 532.568 L 415.457 532.568 L 415.457 532.568 L 415.457 532.568 L 415.457 532.568 L 415.457 532.568 L 415.457 532.568 L 415.457 532.568 Z  M 510.619 224.364 L 534.18 224.364 L 534.18 227.516 L 487.937 227.516 L 487.534 224.804 C 487.918 224.566 488.339 224.393 488.78 224.291 L 501.935 224.291 L 506.295 224.291 L 564.301 70.648 L 569.87 70.648 C 570.476 71.476 571.004 72.359 571.446 73.286 C 575.11 82.667 578.445 92.047 581.962 101.428 C 584.564 108.317 587.239 115.205 589.877 122.094 L 597.902 143.127 L 606.037 164.6 L 614.208 186.036 C 617.335 194.219 620.462 202.403 623.589 210.587 C 625.274 214.984 626.886 219.418 628.645 224.071 L 647.919 224.071 L 648.213 226.966 C 647.297 227.882 590.244 228.139 581.339 227.406 L 581.156 224.438 C 583.712 224.164 586.284 224.091 588.851 224.218 C 591.269 224.218 593.651 224.218 596.18 224.218 L 603.728 224.218 C 602.541 217.367 600.395 210.718 597.352 204.467 C 594.641 197.908 592.259 191.239 589.731 184.606 C 587.202 177.974 584.857 171.598 582.402 165.039 L 532.934 165.039 L 510.619 224.364 L 510.619 224.364 L 510.619 224.364 L 510.619 224.364 L 510.619 224.364 L 510.619 224.364 L 510.619 224.364 L 510.619 224.364 L 510.619 224.364 L 510.619 224.364 L 510.619 224.364 L 510.619 224.364 L 510.619 224.364 L 510.619 224.364 L 510.619 224.364 L 510.619 224.364 Z  M 956.38 693.43 C 952.034 693.419 947.691 693.175 943.371 692.697 C 943.88 692.252 944.433 691.86 945.02 691.525 C 945.433 691.454 945.854 691.454 946.266 691.525 C 951.909 691.525 957.589 691.525 963.232 691.525 C 968.875 691.525 974.445 690.682 980.051 690.829 C 987.731 690.779 995.336 692.353 1002.366 695.446 C 1009.632 698.582 1015.587 704.137 1019.222 711.166 C 1022.267 717.159 1023.837 723.792 1023.802 730.514 C 1023.987 735.271 1023.443 740.028 1022.19 744.621 C 1020.907 748.613 1019.082 752.411 1016.767 755.907 C 1011.307 764.262 1002.879 768.255 993.792 771.114 C 991.908 771.644 989.959 771.903 988.002 771.883 C 981.846 771.883 975.654 771.883 969.498 771.883 C 968.252 771.883 967.006 771.48 965.833 771.48 L 947.146 771.48 C 946.119 771.48 945.094 771.26 943.078 771.077 C 945.073 769.823 947.462 769.353 949.784 769.758 C 951.872 769.758 953.998 769.758 956.086 769.758 C 956.673 766.386 956.929 701.235 956.38 693.43 L 956.38 693.43 L 956.38 693.43 L 956.38 693.43 L 956.38 693.43 L 956.38 693.43 L 956.38 693.43 L 956.38 693.43 L 956.38 693.43 L 956.38 693.43 Z  M 802.149 729.78 L 802.149 769.391 C 806.327 770.197 810.577 768.951 815.451 770.381 C 814.278 771.004 813.839 771.37 813.436 771.37 L 778.625 771.37 C 778.067 771.253 777.526 771.069 777.013 770.82 C 777.782 770.307 778.222 769.684 778.698 769.684 C 782.362 769.684 786.027 769.684 789.691 769.684 L 789.691 693.394 C 785.477 693.064 781.336 693.394 777.269 693.138 L 777.269 692.111 C 777.788 691.846 778.344 691.661 778.918 691.562 C 782.582 691.562 786.247 691.342 789.911 691.562 C 796.983 692.001 803.945 690.353 810.944 690.829 C 815.402 690.792 819.847 691.322 824.172 692.405 C 830.825 694.18 836.049 699.334 837.913 705.963 C 839.532 711.883 837.641 718.208 833.039 722.268 C 829.837 725.127 825.905 727.042 821.68 727.802 C 822.292 728.257 822.957 728.639 823.659 728.938 C 828.945 729.888 833.73 732.663 837.18 736.779 C 838.019 737.72 838.666 738.815 839.086 740.004 C 840.212 743.159 840.818 746.476 840.881 749.824 C 840.682 754.025 841.002 758.234 841.834 762.356 C 842.397 764.275 843.159 766.129 844.106 767.89 C 848.026 771.847 851.434 768.293 855.575 767.89 C 854.503 770.371 852.085 772.003 849.382 772.067 C 846.577 772.493 843.723 772.493 840.918 772.067 C 835.267 771.574 830.707 767.242 829.925 761.624 C 829.339 758.766 829.632 755.724 828.899 752.903 C 827.836 748.652 828.459 744.328 827.396 740.041 C 826.171 733.904 820.718 729.532 814.461 729.671 C 810.541 729.817 806.474 729.78 802.149 729.78 L 802.149 729.78 L 802.149 729.78 L 802.149 729.78 L 802.149 729.78 L 802.149 729.78 L 802.149 729.78 L 802.149 729.78 L 802.149 729.78 Z  M 723.514 773.092 C 713.676 773.367 704.177 769.482 697.351 762.392 C 690.831 756.152 686.456 748.006 684.856 739.124 C 684.485 735.753 684.411 732.357 684.636 728.974 C 684.708 721.081 687.402 713.437 692.294 707.244 C 695.34 702.656 699.293 698.74 703.91 695.738 C 708.727 692.651 714.107 690.547 719.74 689.546 C 724.556 689.044 729.424 689.492 734.067 690.865 C 738.393 692.054 742.416 694.152 745.866 697.021 C 753.408 702.708 758.826 710.759 761.256 719.886 C 763.098 725.82 763.4 732.125 762.136 738.208 C 761.561 741.195 760.802 744.145 759.864 747.039 C 758.489 750.852 756.482 754.408 753.928 757.555 C 750.349 762.285 745.802 766.195 740.589 769.024 C 735.413 772.009 729.48 773.422 723.514 773.092 L 723.514 773.092 L 723.514 773.092 L 723.514 773.092 L 723.514 773.092 L 723.514 773.092 L 723.514 773.092 L 723.514 773.092 Z  M 113.593 773.092 C 103.72 773.38 94.182 769.496 87.32 762.392 C 80.819 756.147 76.437 748.023 74.788 739.16 C 74.454 736.204 74.392 733.223 74.605 730.256 C 74.499 719.907 78.583 709.955 85.928 702.664 C 90.094 698.074 95.19 694.426 100.878 691.964 C 103.396 690.782 106.098 690.038 108.866 689.765 C 110.627 689.375 112.416 689.13 114.216 689.033 C 117.548 689.227 120.845 689.817 124.037 690.791 C 129.914 692.676 135.279 695.886 139.72 700.172 C 146.083 706.529 150.397 714.646 152.105 723.477 C 153.496 730.357 153.067 737.481 150.859 744.144 C 148.995 750.176 145.759 755.694 141.405 760.267 C 136.646 765.451 130.68 769.378 124.037 771.699 C 120.678 772.833 117.131 773.306 113.593 773.092 L 113.593 773.092 L 113.593 773.092 L 113.593 773.092 L 113.593 773.092 L 113.593 773.092 L 113.593 773.092 Z  M 5.203 855.465 L 9.381 855.465 L 1093.277 855.465 C 1093.398 855.496 1093.523 855.496 1093.644 855.465 C 1093.827 855.307 1093.999 855.135 1094.157 854.952 C 1094.157 853.889 1094.157 852.643 1094.157 851.288 C 1094.157 569.553 1094.157 287.818 1094.157 6.082 C 1094.188 5.962 1094.188 5.836 1094.157 5.716 C 1094.01 5.534 1093.851 5.363 1093.68 5.203 L 1090.016 5.203 L 6.119 5.203 C 5.999 5.172 5.873 5.172 5.753 5.203 C 5.607 5.325 5.472 5.46 5.35 5.606 L 5.203 855.465 L 5.203 855.465 L 5.203 855.465 L 5.203 855.465 L 5.203 855.465 L 5.203 855.465 L 5.203 855.465 L 5.203 855.465 L 5.203 855.465 L 5.203 855.465 L 5.203 855.465 L 5.203 855.465 L 5.203 855.465 L 5.203 855.465 L 5.203 855.465 L 5.203 855.465 L 5.203 855.465 L 5.203 855.465 L 5.203 855.465 L 5.203 855.465 L 5.203 855.465 L 5.203 855.465 L 5.203 855.465 L 5.203 855.465 L 5.203 855.465 L 5.203 855.465 L 5.203 855.465 L 5.203 855.465 L 5.203 855.465 Z  M 0 860.558 L 0 0 L 1099.287 0 L 1099.287 860.558 L 0 860.558 L 0 860.558 L 0 860.558 L 0 860.558 L 0 860.558 L 0 860.558 L 0 860.558 L 0 860.558 L 0 860.558 L 0 860.558 L 0 860.558 L 0 860.558 L 0 860.558 L 0 860.558 L 0 860.558 L 0 860.558 L 0 860.558 L 0 860.558 L 0 860.558 L 0 860.558 L 0 860.558 L 0 860.558 L 0 860.558 L 0 860.558 L 0 860.558 L 0 860.558 L 0 860.558 L 0 860.558 L 0 860.558 L 0 860.558 Z  M 1024.6 664.833 L 1024.6 681.722 L 1022.411 681.722 L 1022.411 664.833 L 1016.446 664.833 L 1016.446 662.888 L 1030.565 662.888 L 1030.565 664.833 L 1024.6 664.833 L 1024.6 664.833 Z  M 1043.499 681.722 L 1041.734 681.722 L 1035.344 665.027 L 1035.241 665.027 L 1035.241 665.027 Q 1035.422 667.01 1035.422 669.741 L 1035.422 669.741 L 1035.422 681.722 L 1033.399 681.722 L 1033.399 662.888 L 1036.697 662.888 L 1042.661 678.424 L 1042.764 678.424 L 1048.781 662.888 L 1052.053 662.888 L 1052.053 681.722 L 1049.863 681.722 L 1049.863 669.587 L 1049.863 669.587 Q 1049.863 667.5 1050.043 665.052 L 1050.043 665.052 L 1049.94 665.052 L 1043.499 681.722 L 1043.499 681.722 Z " fill-rule="evenodd" fill="rgb(232,232,232)" stroke-width="0.25" stroke="rgb(59,58,61)" stroke-linejoin="miter" stroke-linecap="butt" stroke-miterlimit="10"></path></g></svg>